<svg xmlns="http://www.w3.org/2000/svg" xmlns:xlink="http://www.w3.org/1999/xlink" width="100" height="100" fill="none">
    <g fill="blue">
        <use xlink:href="#B"/>
        <use xlink:href="#B" x="25"/>
        <path
                d="M49.456 87.873h-.16v-.01a.86.86 0 0 1 .16.01zm.661-20.973h.042c3.793 0 7.26-1.39 9.864-3.74 1.172-1.06 2.169-2.31 2.917-3.71.039-.07.078-.15.115-.22.324-.55.855-.9 1.453-.9h.022c.985 0 1.785.96 1.785 2.14a2.5 2.5 0 0 1-.156.88 11.25 11.25 0 0 1-.257.49c-3.01 5.57-8.934 9.35-15.743 9.35h-.276-.276c-6.81 0-12.734-3.78-15.743-9.35a11.25 11.25 0 0 1-.257-.49 2.48 2.48 0 0 1-.156-.88c0-1.18.799-2.14 1.785-2.14h.021c.599 0 1.129.35 1.453.9.038.07.076.15.115.22.748 1.4 1.745 2.65 2.918 3.71 2.603 2.35 6.07 3.74 9.864 3.74h.041.235.234zM87.5 16.67v66.67c0 2.3-1.867 4.16-4.167 4.16H16.666c-2.299 0-4.166-1.86-4.166-4.16V16.67c0-2.3 1.867-4.17 4.166-4.17h66.667c2.3 0 4.167 1.87 4.167 4.17zm-4.167 0H16.666v66.67h66.667V16.67z" fill-rule="evenodd"/>
    </g>
    <defs >
        <path
                id="B"
                d="M37.384 41.666a4.17 4.17 0 0 0 4.167-4.166 4.17 4.17 0 0 0-4.167-4.166 4.17 4.17 0 0 0-4.167 4.166 4.17 4.17 0 0 0 4.167 4.166z"/>
    </defs>
</svg>