<svg width="100" height="100" viewBox="0 0 100 100" fill="none" xmlns="http://www.w3.org/2000/svg">
<path fill-rule="evenodd" clip-rule="evenodd" d="M49.4564 87.8731C49.4033 87.8731 49.3502 87.8731 49.2962 87.8731V87.8628C49.3493 87.8628 49.4033 87.8628 49.4564 87.8731Z" fill="#495057"/>
<path fill-rule="evenodd" clip-rule="evenodd" d="M87.5002 16.6699V83.34C87.5002 85.64 85.6332 87.5 83.3332 87.5H16.6662C14.3672 87.5 12.5002 85.64 12.5002 83.34V16.6699C12.5002 14.3699 14.3672 12.5 16.6662 12.5H83.3332C85.6332 12.5 87.5002 14.3699 87.5002 16.6699ZM37.3832 33.34C35.0832 33.34 33.2162 35.2 33.2162 37.5C33.2162 39.8 35.0832 41.6699 37.3832 41.6699C39.6822 41.6699 41.5492 39.8 41.5492 37.5C41.5492 35.2 39.6822 33.34 37.3832 33.34ZM62.3832 33.34C60.0832 33.34 58.2162 35.2 58.2162 37.5C58.2162 39.8 60.0832 41.6699 62.3832 41.6699C64.6822 41.6699 66.5492 39.8 66.5492 37.5C66.5492 35.2 64.6822 33.34 62.3832 33.34ZM50.1172 66.9099C50.0392 66.9099 49.9612 66.9099 49.8832 66.9099C49.8042 66.9099 49.7262 66.9099 49.6482 66.9099C49.6342 66.9099 49.6202 66.9099 49.6072 66.9099C45.8132 66.9099 42.3462 65.5099 39.7432 63.1699C38.5702 62.1099 37.5732 60.86 36.8252 59.46C36.7862 59.38 36.7482 59.31 36.7102 59.24C36.3862 58.69 35.8562 58.34 35.2572 58.34C35.2502 58.34 35.2432 58.34 35.2352 58.34C34.2502 58.34 33.4502 59.3 33.4502 60.48C33.4502 60.79 33.5062 61.09 33.6072 61.36C33.6902 61.52 33.7752 61.69 33.8632 61.85C36.8732 67.41 42.7972 71.2 49.6072 71.2C49.6992 71.2 49.7912 71.2 49.8832 71.2C49.9742 71.2 50.0662 71.2 50.1582 71.2C56.9682 71.2 62.8922 67.41 65.9022 61.85C65.9902 61.69 66.0752 61.52 66.1582 61.36C66.2592 61.09 66.3152 60.79 66.3152 60.48C66.3152 59.3 65.5152 58.34 64.5302 58.34C64.5222 58.34 64.5152 58.34 64.5082 58.34C63.9092 58.34 63.3792 58.69 63.0552 59.24C63.0172 59.31 62.9792 59.38 62.9402 59.46C62.1922 60.86 61.1952 62.1099 60.0222 63.1699C57.4192 65.5099 53.9522 66.9099 50.1582 66.9099C50.1452 66.9099 50.1312 66.9099 50.1172 66.9099Z" fill="#495057"/>
<path fill-rule="evenodd" clip-rule="evenodd" d="M87.5002 16.6699V83.34C87.5002 85.64 85.6332 87.5 83.3332 87.5H16.6662C14.3672 87.5 12.5002 85.64 12.5002 83.34V16.6699C12.5002 14.3699 14.3672 12.5 16.6662 12.5H83.3332C85.6332 12.5 87.5002 14.3699 87.5002 16.6699ZM83.3332 16.6699H16.6662V83.34H83.3332V16.6699ZM50.1282 62.74H50.1582C51.5002 62.74 52.7852 62.4999 53.9682 62.0599C55.1822 61.5999 56.2872 60.9199 57.2322 60.0699C57.6442 59.6999 58.0262 59.29 58.3702 58.86C58.7072 58.43 59.0072 57.97 59.2652 57.49L59.3442 57.34C59.3852 57.26 59.4292 57.18 59.4752 57.1C59.9752 56.27 60.6432 55.58 61.4032 55.09C62.3262 54.5 63.3872 54.1699 64.4642 54.1699H64.5302C66.0332 54.1699 67.4342 54.7499 68.5252 55.7999C69.6772 56.8999 70.4812 58.57 70.4812 60.48C70.4812 60.88 70.4462 61.27 70.3792 61.65C70.3072 62.06 70.1992 62.4499 70.0602 62.8199C70.0092 62.9599 69.9502 63.09 69.8842 63.22L69.5662 63.83C67.6792 67.32 64.8632 70.25 61.4452 72.28C58.1452 74.24 54.2842 75.36 50.1582 75.36H49.8822H49.6072C45.4812 75.36 41.6202 74.24 38.3202 72.28C34.9022 70.25 32.0862 67.32 30.1992 63.83L29.8812 63.22C29.8152 63.09 29.7562 62.9599 29.7052 62.8199C29.5662 62.4499 29.4582 62.06 29.3862 61.65C29.3192 61.27 29.2842 60.88 29.2842 60.48C29.2842 58.57 30.0882 56.8999 31.2402 55.7999C32.3312 54.7499 33.7322 54.1699 35.2352 54.1699H35.2572C36.3782 54.1699 37.4392 54.5 38.3622 55.09C39.1222 55.58 39.7902 56.27 40.2902 57.1C40.3362 57.18 40.3802 57.26 40.4212 57.34L40.5002 57.49C40.7582 57.97 41.0582 58.43 41.3952 58.86C41.7392 59.29 42.1212 59.6999 42.5332 60.0699C43.4782 60.9199 44.5832 61.5999 45.7972 62.0599C46.9802 62.4999 48.2652 62.74 49.6072 62.74H49.6372H49.8082C49.8582 62.74 49.9072 62.74 49.9572 62.74H50.1282ZM50.1172 66.9099C50.0392 66.9099 49.9612 66.9099 49.8832 66.9099C49.8042 66.9099 49.7262 66.9099 49.6482 66.9099C49.6342 66.9099 49.6202 66.9099 49.6072 66.9099C45.8132 66.9099 42.3462 65.5099 39.7432 63.1699C38.5702 62.1099 37.5732 60.86 36.8252 59.46C36.7862 59.38 36.7482 59.31 36.7102 59.24C36.3862 58.69 35.8562 58.34 35.2572 58.34C35.2502 58.34 35.2432 58.34 35.2352 58.34C34.2502 58.34 33.4502 59.3 33.4502 60.48C33.4502 60.79 33.5062 61.09 33.6072 61.36C33.6902 61.52 33.7752 61.69 33.8632 61.85C36.8732 67.41 42.7972 71.2 49.6072 71.2C49.6992 71.2 49.7912 71.2 49.8832 71.2C49.9742 71.2 50.0662 71.2 50.1582 71.2C56.9682 71.2 62.8922 67.41 65.9022 61.85C65.9902 61.69 66.0752 61.52 66.1582 61.36C66.2592 61.09 66.3152 60.79 66.3152 60.48C66.3152 59.3 65.5152 58.34 64.5302 58.34C64.5222 58.34 64.5152 58.34 64.5082 58.34C63.9092 58.34 63.3792 58.69 63.0552 59.24C63.0172 59.31 62.9792 59.38 62.9402 59.46C62.1922 60.86 61.1952 62.1099 60.0222 63.1699C57.4192 65.5099 53.9522 66.9099 50.1582 66.9099C50.1452 66.9099 50.1312 66.9099 50.1172 66.9099ZM37.3832 29.1699C39.6822 29.1699 41.7662 30.1 43.2742 31.61C44.7832 33.12 45.7162 35.2 45.7162 37.5C45.7162 39.8 44.7832 41.89 43.2742 43.39C41.7662 44.9 39.6822 45.84 37.3832 45.84C35.0832 45.84 32.9992 44.9 31.4912 43.39C29.9822 41.89 29.0492 39.8 29.0492 37.5C29.0492 35.2 29.9822 33.12 31.4912 31.61C32.9992 30.1 35.0832 29.1699 37.3832 29.1699ZM37.3832 33.34C35.0832 33.34 33.2162 35.2 33.2162 37.5C33.2162 39.8 35.0832 41.6699 37.3832 41.6699C39.6822 41.6699 41.5492 39.8 41.5492 37.5C41.5492 35.2 39.6822 33.34 37.3832 33.34ZM62.3832 29.1699C64.6822 29.1699 66.7662 30.1 68.2742 31.61C69.7832 33.12 70.7162 35.2 70.7162 37.5C70.7162 39.8 69.7832 41.89 68.2742 43.39C66.7662 44.9 64.6822 45.84 62.3832 45.84C60.0832 45.84 57.9992 44.9 56.4912 43.39C54.9822 41.89 54.0492 39.8 54.0492 37.5C54.0492 35.2 54.9822 33.12 56.4912 31.61C57.9992 30.1 60.0832 29.1699 62.3832 29.1699ZM62.3832 33.34C60.0832 33.34 58.2162 35.2 58.2162 37.5C58.2162 39.8 60.0832 41.6699 62.3832 41.6699C64.6822 41.6699 66.5492 39.8 66.5492 37.5C66.5492 35.2 64.6822 33.34 62.3832 33.34Z" fill="#495057"/>
</svg>
