<svg width="100" height="100" viewBox="0 0 100 100" fill="none" xmlns="http://www.w3.org/2000/svg">
<g clip-path="url(#clip0_408_18915)">
<path fill-rule="evenodd" clip-rule="evenodd" d="M13.11 51.473C12.713 51.076 12.5 50.5471 12.5 50.0001C12.5 49.4531 12.713 48.924 13.11 48.527L45.519 16.1181C46.332 15.3051 47.652 15.3051 48.465 16.1181C49.278 16.9311 49.278 18.252 48.465 19.065L19.613 47.9171H85.416C86.566 47.9171 87.5 48.8501 87.5 50.0001C87.5 51.1501 86.566 52.0841 85.416 52.0841H19.613L48.465 80.936C49.278 81.749 49.278 83.069 48.465 83.882C47.652 84.695 46.332 84.695 45.519 83.882L13.11 51.473Z" fill="#5F5F5C"/>
</g>
<defs>
<clipPath id="clip0_408_18915">
<rect width="100" height="100" fill="white"/>
</clipPath>
</defs>
</svg>
