<?xml version="1.0" encoding="utf-8"?>
<svg
        version="1.1"
        id="_x31_"
        xmlns="http://www.w3.org/2000/svg"
        xmlns:xlink="http://www.w3.org/1999/xlink"
        x="0px"
        y="0px"
        viewBox="0 0 24 24"
        enable-background="new 0 0 24 24"
        xml:space="preserve"
        width="128"
        height="128">
<path
        d="M20.5,24c-0.111,0-0.222-0.037-0.313-0.109l-2.15-1.721l-1.684,1.684c-0.195,0.195-0.512,0.195-0.707,0L14,22.207
	l-1.646,1.646c-0.195,0.195-0.512,0.195-0.707,0L10,22.207l-1.646,1.646c-0.195,0.195-0.512,0.195-0.707,0L5.963,22.17l-2.15,1.721
	c-0.151,0.12-0.355,0.144-0.529,0.06C3.11,23.867,3,23.692,3,23.5v-23c0-0.192,0.11-0.367,0.283-0.451
	c0.174-0.084,0.378-0.06,0.529,0.06l2.15,1.721l1.684-1.684c0.195-0.195,0.512-0.195,0.707,0L10,1.793l1.646-1.646
	c0.195-0.195,0.512-0.195,0.707,0L14,1.793l1.646-1.646c0.195-0.195,0.512-0.195,0.707,0l1.684,1.684l2.15-1.721
	c0.15-0.12,0.354-0.144,0.529-0.06C20.89,0.133,21,0.308,21,0.5v23c0,0.192-0.11,0.367-0.283,0.451C20.647,23.984,20.573,24,20.5,24
	z M14,21c0.128,0,0.256,0.049,0.354,0.146L16,22.793l1.646-1.646c0.18-0.18,0.468-0.196,0.666-0.037L20,22.459V1.541l-1.688,1.35
	c-0.199,0.159-0.486,0.144-0.666-0.037L16,1.207l-1.646,1.646c-0.195,0.195-0.512,0.195-0.707,0L12,1.207l-1.646,1.646
	c-0.195,0.195-0.512,0.195-0.707,0L8,1.207L6.354,2.854C6.175,3.034,5.888,3.05,5.688,2.891L4,1.541v20.919l1.688-1.35
	c0.199-0.159,0.486-0.144,0.666,0.037L8,22.793l1.646-1.646c0.195-0.195,0.512-0.195,0.707,0L12,22.793l1.646-1.646
	C13.744,21.049,13.872,21,14,21z"
        style="stroke: currentColor; stroke-width: 0.1px; stroke-linecap: round;"/>
<path d="M9,11c-1.103,0-2-0.897-2-2s0.897-2,2-2s2,0.897,2,2S10.103,11,9,11z M9,8C8.448,8,8,8.449,8,9s0.448,1,1,1s1-0.449,1-1
	S9.552,8,9,8z" style="stroke: currentColor; stroke-width: 0.1px; stroke-linecap: round;"/>
<path d="M15,17c-1.103,0-2-0.897-2-2s0.897-2,2-2s2,0.897,2,2S16.103,17,15,17z M15,14c-0.552,0-1,0.449-1,1s0.448,1,1,1
	s1-0.449,1-1S15.552,14,15,14z" style="stroke: currentColor; stroke-width: 0.1px; stroke-linecap: round;"/>
<path d="M8.5,17c-0.107,0-0.216-0.034-0.307-0.105c-0.219-0.169-0.258-0.483-0.088-0.702l7-9c0.17-0.218,0.484-0.257,0.701-0.087
	c0.219,0.169,0.258,0.483,0.088,0.702l-7,9C8.796,16.934,8.648,17,8.5,17z" style="stroke: currentColor; stroke-width: 0.1px; stroke-linecap: round;"/>
</svg>
