<svg width="100" height="100" viewBox="0 0 100 100" fill="none" xmlns="http://www.w3.org/2000/svg">
<g clip-path="url(#clip0_356_18998)">
<path fill-rule="evenodd" clip-rule="evenodd" d="M85.3337 50C85.3337 51.1039 84.4367 51.9996 83.3337 51.9996C82.2298 51.9996 81.3337 51.1039 81.3337 50V12.5001C81.3337 11.9019 81.0907 11.3611 80.6977 10.9691C80.3057 10.5759 79.7647 10.3337 79.1667 10.3337H20.8337C20.2357 10.3337 19.6937 10.5759 19.3017 10.9691C18.9097 11.3611 18.6667 11.9019 18.6667 12.5001V74.9996C18.6667 75.5977 18.9097 76.1396 19.3017 76.5317C19.6937 76.9238 20.2357 77.1671 20.8337 77.1671H54.1667C55.2707 77.1671 56.1667 78.0627 56.1667 79.1667C56.1667 80.2706 55.2707 81.1663 54.1667 81.1663H20.8337C19.1317 81.1663 17.5897 80.4757 16.4737 79.3601C15.3567 78.2434 14.6667 76.7017 14.6667 74.9996V12.5001C14.6667 10.798 15.3567 9.25631 16.4737 8.13962C17.5897 7.024 19.1317 6.33337 20.8337 6.33337H79.1667C80.8688 6.33337 82.4108 7.024 83.5267 8.13962C84.6427 9.25631 85.3337 10.798 85.3337 12.5001V50Z" fill="#495057"/>
<path fill-rule="evenodd" clip-rule="evenodd" d="M87.4998 54.167V87.5002C87.4998 89.7989 85.633 91.6669 83.3325 91.6669H58.3327C56.0332 91.6669 54.1664 89.7989 54.1664 87.5002V54.167C54.1664 51.867 56.0332 50.0003 58.3327 50.0003H83.3325C85.633 50.0003 87.4998 51.867 87.4998 54.167ZM83.4997 54.167L83.3325 54.0003H58.3327L58.1665 54.167V87.5002L58.3327 87.6669H83.3325L83.4997 87.5002V54.167Z" fill="#495057"/>
<path fill-rule="evenodd" clip-rule="evenodd" d="M29.1664 29.083C28.0624 29.083 27.1664 28.187 27.1664 27.083C27.1664 25.98 28.0624 25.083 29.1664 25.083H54.1664C55.2704 25.083 56.1664 25.98 56.1664 27.083C56.1664 28.187 55.2704 29.083 54.1664 29.083H29.1664Z" fill="#495057"/>
<path fill-rule="evenodd" clip-rule="evenodd" d="M62.4999 29.083C61.3962 29.083 60.4999 28.187 60.4999 27.083C60.4999 25.98 61.3962 25.083 62.4999 25.083H70.8332C71.9372 25.083 72.8332 25.98 72.8332 27.083C72.8332 28.187 71.9372 29.083 70.8332 29.083H62.4999Z" fill="#495057"/>
<path fill-rule="evenodd" clip-rule="evenodd" d="M29.1664 41.583C28.0624 41.583 27.1664 40.687 27.1664 39.583C27.1664 38.48 28.0624 37.583 29.1664 37.583H54.1664C55.2704 37.583 56.1664 38.48 56.1664 39.583C56.1664 40.687 55.2704 41.583 54.1664 41.583H29.1664Z" fill="#495057"/>
<path fill-rule="evenodd" clip-rule="evenodd" d="M62.4999 41.583C61.3962 41.583 60.4999 40.687 60.4999 39.583C60.4999 38.48 61.3962 37.583 62.4999 37.583H70.8332C71.9372 37.583 72.8332 38.48 72.8332 39.583C72.8332 40.687 71.9372 41.583 70.8332 41.583H62.4999Z" fill="#495057"/>
<path fill-rule="evenodd" clip-rule="evenodd" d="M69.6883 76.4144C68.9077 77.195 67.6405 77.195 66.8599 76.4144C66.0792 75.6337 66.0792 74.3666 66.8599 73.5859L77.7522 62.6937C78.5328 61.913 79.8 61.913 80.5806 62.6937C81.3612 63.4743 81.3612 64.7414 80.5806 65.5221L69.6883 76.4144Z" fill="#495057"/>
<path fill-rule="evenodd" clip-rule="evenodd" d="M62.427 71.9811C61.6465 71.2007 61.6464 69.9334 62.427 69.1528C63.2077 68.3721 64.4749 68.3722 65.2554 69.1527L69.6883 73.5857C70.4691 74.3664 70.4692 75.6337 69.6886 76.4143C68.9079 77.1949 67.6407 77.1948 66.8599 76.4141L62.427 71.9811Z" fill="#495057"/>
<path fill-rule="evenodd" clip-rule="evenodd" d="M29.1664 54.083C28.0624 54.083 27.167 53.187 27.167 52.083C27.167 50.98 28.0624 50.083 29.1664 50.083H50.7117C51.8157 50.083 52.7119 50.98 52.7119 52.083C52.7119 53.187 51.8157 54.083 50.7117 54.083H29.1664Z" fill="#495057"/>
<path fill-rule="evenodd" clip-rule="evenodd" d="M57.8937 54.083C56.79 54.083 55.8937 53.187 55.8937 52.083C55.8937 50.98 56.79 50.083 57.8937 50.083H65.0754C66.1794 50.083 67.0754 50.98 67.0754 52.083C67.0754 53.187 66.1794 54.083 65.0754 54.083H57.8937Z" fill="#495057"/>
<path fill-rule="evenodd" clip-rule="evenodd" d="M29.1664 66.583C28.0624 66.583 27.1664 65.687 27.1664 64.583C27.1664 63.48 28.0624 62.583 29.1664 62.583H54.1664C55.2704 62.583 56.1664 63.48 56.1664 64.583C56.1664 65.687 55.2704 66.583 54.1664 66.583H29.1664Z" fill="#495057"/>
</g>
<defs>
<clipPath id="clip0_356_18998">
<rect width="100" height="100" fill="white"/>
</clipPath>
</defs>
</svg>
