<svg width="100" height="100" viewBox="0 0 100 100" fill="none" xmlns="http://www.w3.org/2000/svg">
<path fill-rule="evenodd" clip-rule="evenodd" d="M83.3337 50L54.1667 79.1667H20.8337C18.5337 79.1667 16.6667 77.2999 16.6667 74.9996V12.5001C16.6667 10.2009 18.5337 8.33301 20.8337 8.33301H79.1667C81.4668 8.33301 83.3337 10.2009 83.3337 12.5001V50ZM29.1667 66.5835H54.1667C55.2707 66.5835 56.1667 65.6868 56.1667 64.5839C56.1667 63.4799 55.2707 62.5832 54.1667 62.5832H29.1667C28.0627 62.5832 27.1667 63.4799 27.1667 64.5839C27.1667 65.6868 28.0627 66.5835 29.1667 66.5835ZM29.1667 29.0836H54.1667C55.2707 29.0836 56.1667 28.1869 56.1667 27.0829C56.1667 25.979 55.2707 25.0833 54.1667 25.0833H29.1667C28.0627 25.0833 27.1667 25.979 27.1667 27.0829C27.1667 28.1869 28.0627 29.0836 29.1667 29.0836ZM62.4997 29.0836H70.8337C71.9367 29.0836 72.8337 28.1869 72.8337 27.0829C72.8337 25.979 71.9367 25.0833 70.8337 25.0833H62.4997C61.3957 25.0833 60.4997 25.979 60.4997 27.0829C60.4997 28.1869 61.3957 29.0836 62.4997 29.0836ZM62.4997 41.5829H70.8337C71.9367 41.5829 72.8337 40.6872 72.8337 39.5833C72.8337 38.4793 71.9367 37.5836 70.8337 37.5836H62.4997C61.3957 37.5836 60.4997 38.4793 60.4997 39.5833C60.4997 40.6872 61.3957 41.5829 62.4997 41.5829ZM29.1667 41.5829H54.1667C55.2707 41.5829 56.1667 40.6872 56.1667 39.5833C56.1667 38.4793 55.2707 37.5836 54.1667 37.5836H29.1667C28.0627 37.5836 27.1667 38.4793 27.1667 39.5833C27.1667 40.6872 28.0627 41.5829 29.1667 41.5829ZM29.1667 54.0832H50.7117C51.8157 54.0832 52.7117 53.1875 52.7117 52.0836C52.7117 50.9796 51.8157 50.0829 50.7117 50.0829H29.1667C28.0627 50.0829 27.1667 50.9796 27.1667 52.0836C27.1667 53.1875 28.0627 54.0832 29.1667 54.0832Z" fill="#495057"/>
<path fill-rule="evenodd" clip-rule="evenodd" d="M83.3337 50L54.1667 79.1667H20.8337C18.5337 79.1667 16.6667 77.2999 16.6667 74.9996V12.5001C16.6667 10.2009 18.5337 8.33301 20.8337 8.33301H79.1667C81.4668 8.33301 83.3337 10.2009 83.3337 12.5001V50ZM79.3337 48.3436V12.5001L79.1667 12.3333H20.8337L20.6667 12.5001V74.9996L20.8337 75.1664H52.5098L79.3337 48.3436ZM29.1667 70.5838C27.5107 70.5838 26.0107 69.9123 24.9247 68.8254C23.8377 67.7395 23.1667 66.2393 23.1667 64.5839C23.1667 62.9274 23.8377 61.4272 24.9247 60.3413C26.0107 59.2544 27.5107 58.5829 29.1667 58.5829H54.1667C55.8227 58.5829 57.3228 59.2544 58.4088 60.3413C59.4948 61.4272 60.1667 62.9274 60.1667 64.5839C60.1667 66.2393 59.4948 67.7395 58.4088 68.8254C57.3228 69.9123 55.8227 70.5838 54.1667 70.5838H29.1667ZM29.1667 66.5835H54.1667C55.2707 66.5835 56.1667 65.6868 56.1667 64.5839C56.1667 63.4799 55.2707 62.5832 54.1667 62.5832H29.1667C28.0627 62.5832 27.1667 63.4799 27.1667 64.5839C27.1667 65.6868 28.0627 66.5835 29.1667 66.5835ZM29.1667 58.0835C27.5107 58.0835 26.0107 57.412 24.9247 56.3261C23.8377 55.2392 23.1667 53.7389 23.1667 52.0836C23.1667 50.4271 23.8377 48.9269 24.9247 47.841C26.0107 46.7551 27.5107 46.0836 29.1667 46.0836H50.7117C52.3677 46.0836 53.8677 46.7551 54.9548 47.841C56.0407 48.9269 56.7117 50.4271 56.7117 52.0836C56.7117 53.7389 56.0407 55.2392 54.9548 56.3261C53.8677 57.412 52.3677 58.0835 50.7117 58.0835H29.1667ZM29.1667 54.0832H50.7117C51.8157 54.0832 52.7117 53.1875 52.7117 52.0836C52.7117 50.9796 51.8157 50.0829 50.7117 50.0829H29.1667C28.0627 50.0829 27.1667 50.9796 27.1667 52.0836C27.1667 53.1875 28.0627 54.0832 29.1667 54.0832ZM58.3337 22.7671C59.4127 21.7248 60.8827 21.083 62.4997 21.083H70.8337C72.4887 21.083 73.9897 21.7545 75.0757 22.8414C76.1617 23.9273 76.8337 25.4276 76.8337 27.0829C76.8337 28.7394 76.1617 30.2396 75.0757 31.3255C73.9897 32.4114 72.4887 33.0829 70.8337 33.0829H62.4997C60.8827 33.0829 59.4127 32.4422 58.3337 31.3999C57.2537 32.4422 55.7847 33.0829 54.1667 33.0829H29.1667C27.5107 33.0829 26.0107 32.4114 24.9247 31.3255C23.8377 30.2396 23.1667 28.7394 23.1667 27.0829C23.1667 25.4276 23.8377 23.9273 24.9247 22.8414C26.0107 21.7545 27.5107 21.083 29.1667 21.083H54.1667C55.7847 21.083 57.2537 21.7248 58.3337 22.7671ZM62.4997 29.0836H70.8337C71.9367 29.0836 72.8337 28.1869 72.8337 27.0829C72.8337 25.979 71.9367 25.0833 70.8337 25.0833H62.4997C61.3957 25.0833 60.4997 25.979 60.4997 27.0829C60.4997 28.1869 61.3957 29.0836 62.4997 29.0836ZM29.1667 29.0836H54.1667C55.2707 29.0836 56.1667 28.1869 56.1667 27.0829C56.1667 25.979 55.2707 25.0833 54.1667 25.0833H29.1667C28.0627 25.0833 27.1667 25.979 27.1667 27.0829C27.1667 28.1869 28.0627 29.0836 29.1667 29.0836ZM58.3337 35.2663C59.4127 34.224 60.8827 33.5833 62.4997 33.5833H70.8337C72.4887 33.5833 73.9897 34.2548 75.0757 35.3407C76.1617 36.4276 76.8337 37.9279 76.8337 39.5833C76.8337 41.2397 76.1617 42.7399 75.0757 43.8258C73.9897 44.9117 72.4887 45.5832 70.8337 45.5832H62.4997C60.8827 45.5832 59.4127 44.9425 58.3337 43.9002C57.2537 44.9425 55.7847 45.5832 54.1667 45.5832H29.1667C27.5107 45.5832 26.0107 44.9117 24.9247 43.8258C23.8377 42.7399 23.1667 41.2397 23.1667 39.5833C23.1667 37.9279 23.8377 36.4276 24.9247 35.3407C26.0107 34.2548 27.5107 33.5833 29.1667 33.5833H54.1667C55.7847 33.5833 57.2537 34.224 58.3337 35.2663ZM62.4997 41.5829H70.8337C71.9367 41.5829 72.8337 40.6872 72.8337 39.5833C72.8337 38.4793 71.9367 37.5836 70.8337 37.5836H62.4997C61.3957 37.5836 60.4997 38.4793 60.4997 39.5833C60.4997 40.6872 61.3957 41.5829 62.4997 41.5829ZM29.1667 41.5829H54.1667C55.2707 41.5829 56.1667 40.6872 56.1667 39.5833C56.1667 38.4793 55.2707 37.5836 54.1667 37.5836H29.1667C28.0627 37.5836 27.1667 38.4793 27.1667 39.5833C27.1667 40.6872 28.0627 41.5829 29.1667 41.5829Z" fill="#495057"/>
<path fill-rule="evenodd" clip-rule="evenodd" d="M87.4999 54.167V87.5002C87.4999 89.7989 85.6332 91.6669 83.3326 91.6669H58.3328C56.0333 91.6669 54.1665 89.7989 54.1665 87.5002V54.167C54.1665 51.867 56.0333 50.0003 58.3328 50.0003H83.3326C85.6332 50.0003 87.4999 51.867 87.4999 54.167ZM66.8598 76.4136C67.6406 77.1949 68.9074 77.1949 69.6882 76.4136L80.5805 65.5216C81.3613 64.7416 81.3613 63.4736 80.5805 62.6936C79.7997 61.9123 78.5329 61.9123 77.7521 62.6936L68.274 72.1709L65.2553 69.1523C64.4746 68.3723 63.2077 68.3723 62.427 69.1523C61.6462 69.9336 61.6462 71.2003 62.427 71.9816L66.8598 76.4136Z" fill="#495057"/>
<path fill-rule="evenodd" clip-rule="evenodd" d="M87.4999 54.167V87.5002C87.4999 89.7989 85.6332 91.6669 83.3326 91.6669H58.3328C56.0333 91.6669 54.1665 89.7989 54.1665 87.5002V54.167C54.1665 51.867 56.0333 50.0003 58.3328 50.0003H83.3326C85.6332 50.0003 87.4999 51.867 87.4999 54.167ZM66.8598 76.4136C67.6406 77.1949 68.9074 77.1949 69.6882 76.4136L80.5805 65.5216C81.3613 64.7416 81.3613 63.4736 80.5805 62.6936C79.7997 61.9123 78.5329 61.9123 77.7521 62.6936L68.274 72.1709L65.2553 69.1523C64.4746 68.3723 63.2077 68.3723 62.427 69.1523C61.6462 69.9336 61.6462 71.2003 62.427 71.9816L66.8598 76.4136ZM58.1666 68.6149C58.454 67.7776 58.9307 66.9909 59.5986 66.3243C60.7692 65.1536 62.3047 64.5669 63.8412 64.5669C65.3766 64.5669 66.9131 65.1536 68.0837 66.3243L68.274 66.5149L74.9237 59.8643C76.0944 58.6936 77.6309 58.1083 79.1663 58.1083C80.7028 58.1083 82.2382 58.6936 83.4089 59.8643C83.4392 59.8949 83.4695 59.9269 83.4998 59.9576V54.167L83.3326 54.0003H58.3328L58.1666 54.167V68.6149ZM83.4998 68.2576C83.4695 68.2883 83.4392 68.3189 83.4089 68.3496L72.5166 79.2429C71.3459 80.4136 69.8105 80.9989 68.274 80.9989C66.7385 80.9989 65.202 80.4136 64.0314 79.2429L59.5986 74.8096C58.9307 74.1416 58.454 73.3562 58.1666 72.5189V87.5002L58.3328 87.6669H83.3326L83.4998 87.5002V68.2576Z" fill="#495057"/>
<path fill-rule="evenodd" clip-rule="evenodd" d="M57.8938 54.083C56.7901 54.083 55.8938 53.187 55.8938 52.083C55.8938 50.98 56.7901 50.083 57.8938 50.083H65.0755C66.1795 50.083 67.0755 50.98 67.0755 52.083C67.0755 53.187 66.1795 54.083 65.0755 54.083H57.8938Z" fill="#495057"/>
</svg>
