<svg width="101" height="101" viewBox="0 0 101 101" fill="none" xmlns="http://www.w3.org/2000/svg">
<path d="M84.875 22.5H69.25V19.375C69.25 16.8886 68.2623 14.504 66.5041 12.7459C64.746 10.9877 62.3614 10 59.875 10H41.125C38.6386 10 36.254 10.9877 34.4959 12.7459C32.7377 14.504 31.75 16.8886 31.75 19.375V22.5H16.125C15.2962 22.5 14.5013 22.8292 13.9153 23.4153C13.3292 24.0013 13 24.7962 13 25.625C13 26.4538 13.3292 27.2487 13.9153 27.8347C14.5013 28.4208 15.2962 28.75 16.125 28.75H19.25V85C19.25 86.6576 19.9085 88.2473 21.0806 89.4194C22.2527 90.5915 23.8424 91.25 25.5 91.25H75.5C77.1576 91.25 78.7473 90.5915 79.9194 89.4194C81.0915 88.2473 81.75 86.6576 81.75 85V28.75H84.875C85.7038 28.75 86.4987 28.4208 87.0847 27.8347C87.6708 27.2487 88 26.4538 88 25.625C88 24.7962 87.6708 24.0013 87.0847 23.4153C86.4987 22.8292 85.7038 22.5 84.875 22.5ZM38 19.375C38 18.5462 38.3292 17.7513 38.9153 17.1653C39.5013 16.5792 40.2962 16.25 41.125 16.25H59.875C60.7038 16.25 61.4987 16.5792 62.0847 17.1653C62.6708 17.7513 63 18.5462 63 19.375V22.5H38V19.375ZM75.5 85H25.5V28.75H75.5V85ZM44.25 44.375V69.375C44.25 70.2038 43.9208 70.9987 43.3347 71.5847C42.7487 72.1708 41.9538 72.5 41.125 72.5C40.2962 72.5 39.5013 72.1708 38.9153 71.5847C38.3292 70.9987 38 70.2038 38 69.375V44.375C38 43.5462 38.3292 42.7513 38.9153 42.1653C39.5013 41.5792 40.2962 41.25 41.125 41.25C41.9538 41.25 42.7487 41.5792 43.3347 42.1653C43.9208 42.7513 44.25 43.5462 44.25 44.375ZM63 44.375V69.375C63 70.2038 62.6708 70.9987 62.0847 71.5847C61.4987 72.1708 60.7038 72.5 59.875 72.5C59.0462 72.5 58.2513 72.1708 57.6653 71.5847C57.0792 70.9987 56.75 70.2038 56.75 69.375V44.375C56.75 43.5462 57.0792 42.7513 57.6653 42.1653C58.2513 41.5792 59.0462 41.25 59.875 41.25C60.7038 41.25 61.4987 41.5792 62.0847 42.1653C62.6708 42.7513 63 43.5462 63 44.375Z" fill="#60605C"/>
</svg>
