<svg width="101" height="101" viewBox="0 0 101 101" fill="none" xmlns="http://www.w3.org/2000/svg">
<path d="M89.5433 29.2356L72.0863 11.7825C71.5059 11.202 70.8168 10.7415 70.0585 10.4273C69.3001 10.1131 68.4872 9.95142 67.6664 9.95142C66.8455 9.95142 66.0326 10.1131 65.2743 10.4273C64.5159 10.7415 63.8268 11.202 63.2464 11.7825L15.0785 59.9505C14.4956 60.5287 14.0334 61.2171 13.7189 61.9755C13.4044 62.734 13.2438 63.5474 13.2464 64.3684V81.8255C13.2464 83.4831 13.9049 85.0728 15.077 86.2449C16.2491 87.417 17.8388 88.0755 19.4964 88.0755H85.1214C85.9502 88.0755 86.7451 87.7462 87.3311 87.1602C87.9172 86.5741 88.2464 85.7793 88.2464 84.9505C88.2464 84.1217 87.9172 83.3268 87.3311 82.7408C86.7451 82.1547 85.9502 81.8255 85.1214 81.8255H45.7933L89.5433 38.0755C90.1238 37.4951 90.5843 36.806 90.8985 36.0477C91.2127 35.2893 91.3744 34.4764 91.3744 33.6556C91.3744 32.8347 91.2127 32.0218 90.8985 31.2634C90.5843 30.5051 90.1238 29.816 89.5433 29.2356ZM36.9535 81.8255H19.4964V64.3684L53.8714 29.9934L71.3285 47.4505L36.9535 81.8255ZM75.7464 43.0325L58.2933 25.5755L67.6683 16.2005L85.1214 33.6575L75.7464 43.0325Z" fill="black"/>
</svg>
