<svg width="100" height="100" viewBox="0 0 100 100" fill="none" xmlns="http://www.w3.org/2000/svg">
<path d="M85.905 14.635C84.5374 13.1969 82.8959 12.0469 81.077 11.2529C79.2582 10.4589 77.2989 10.0369 75.3144 10.0118C73.33 9.98662 71.3606 10.3588 69.5222 11.1064C67.6839 11.8541 66.0137 12.962 64.61 14.365L17.735 61.24C16.0966 62.8779 14.9589 64.9487 14.455 67.21L10.07 86.96C9.97853 87.3704 9.99204 87.7973 10.1093 88.2011C10.2266 88.605 10.4438 88.9727 10.7409 89.2703C11.038 89.5679 11.4053 89.7857 11.809 89.9036C12.2126 90.0216 12.6395 90.0358 13.05 89.945L32.685 85.58C35.0222 85.0597 37.1626 83.8837 38.855 82.19L85.645 35.4C88.3876 32.6562 89.9497 28.9495 89.9983 25.0704C90.0469 21.1912 88.578 17.4466 85.905 14.635ZM68.145 17.9C69.0596 16.9722 70.1487 16.2346 71.3496 15.7296C72.5505 15.2246 73.8394 14.9622 75.1422 14.9575C76.4449 14.9528 77.7357 15.206 78.9402 15.7024C80.1447 16.1987 81.2391 16.9286 82.1603 17.8497C83.0815 18.7709 83.8113 19.8653 84.3077 21.0698C84.804 22.2743 85.0572 23.5651 85.0525 24.8678C85.0479 26.1706 84.7855 27.4595 84.2805 28.6604C83.7754 29.8613 83.0378 30.9504 82.11 31.865L78.755 35.22L64.79 21.26L68.145 17.9ZM61.255 24.8L75.22 38.76L35.32 78.66C34.2998 79.6816 33.0093 80.391 31.6 80.705L15.8 84.215L19.34 68.3C19.635 66.965 20.305 65.745 21.27 64.78L61.255 24.8Z" fill="#60605C"/>
</svg>
