<svg width="100" height="100" viewBox="0 0 100 100" fill="none" xmlns="http://www.w3.org/2000/svg">
<g clip-path="url(#clip0_356_18994)">
<path fill-rule="evenodd" clip-rule="evenodd" d="M56.7924 40.2601C56.832 40.2134 56.873 40.1682 56.9169 40.1243L71.0271 26.014L59.4136 26.014C59.4059 26.0147 59.3981 26.014 59.3903 26.0147C58.2512 26.0027 57.3298 25.0729 57.3305 23.9309C57.3298 22.7889 58.2512 21.8605 59.391 21.8478C59.3981 21.8478 59.4052 21.8478 59.4136 21.8478L75.8496 21.8478C75.921 21.84 75.9945 21.8358 76.0681 21.8358C76.6218 21.8365 77.1493 22.0543 77.5417 22.4467C77.9327 22.8377 78.1505 23.3652 78.1512 23.9189L78.1512 40.5853C78.1512 41.7351 77.2178 42.6685 76.0674 42.6692C74.9176 42.6692 73.9842 41.7358 73.9842 40.5861L73.985 28.9492L59.8634 43.0708L59.869 43.0765L53.9767 48.9688C53.1635 49.782 51.8434 49.7812 51.0309 48.9688C50.2177 48.1556 50.217 46.8354 51.0302 46.0223L56.7924 40.2601Z" fill="#495057"/>
<path fill-rule="evenodd" clip-rule="evenodd" d="M43.2058 59.7396C43.1662 59.7862 43.1251 59.8315 43.0813 59.8753L28.971 73.9856L40.5845 73.9856C40.5923 73.9849 40.6001 73.9856 40.6079 73.9849C41.747 73.9969 42.6684 74.9268 42.6677 76.0687C42.6684 77.2107 41.747 78.1391 40.6071 78.1519C40.6001 78.1519 40.593 78.1519 40.5845 78.1519L24.1486 78.1519C24.0772 78.1597 24.0036 78.1639 23.9301 78.1639C23.3764 78.1632 22.8489 77.9454 22.4565 77.553C22.0654 77.1619 21.8477 76.6344 21.8469 76.0808L21.8469 59.4143C21.8469 58.2645 22.7803 57.3312 23.9308 57.3305C25.0805 57.3305 26.0139 58.2638 26.0139 59.4136L26.0132 71.0504L40.1348 56.9288L40.1291 56.9232L46.0215 51.0309C46.8346 50.2177 48.1548 50.2184 48.9673 51.0309C49.7804 51.844 49.7811 53.1642 48.968 53.9774L43.2058 59.7396Z" fill="#495057"/>
</g>
<defs>
<clipPath id="clip0_356_18994">
<rect width="100" height="100" fill="white"/>
</clipPath>
</defs>
</svg>
