<svg width="100" height="100" viewBox="0 0 100 100" fill="none" xmlns="http://www.w3.org/2000/svg">
<path fill-rule="evenodd" clip-rule="evenodd" d="M43.7546 83.3337C43.2201 83.3351 42.6855 83.1315 42.2782 82.7242C41.8405 82.2865 41.6383 81.7024 41.6715 81.1289L41.6715 81.2505C41.6715 82.4003 42.6049 83.3337 43.7546 83.3337Z" fill="#495057"/>
<path fill-rule="evenodd" clip-rule="evenodd" d="M43.7494 83.3397V49.7027L17.1534 18.0067C16.8384 17.6307 16.6664 17.1587 16.6664 16.6677C16.6664 16.4547 16.6984 16.2456 16.7614 16.0446C17.0264 15.1986 17.8174 14.5847 18.7504 14.5847H81.2494C81.7324 14.5847 82.2054 14.7497 82.5894 15.0717C83.0704 15.4757 83.3324 16.0617 83.3334 16.6677C83.3334 17.1497 83.1674 17.6237 82.8464 18.0067L56.2494 49.7027V75.8517C56.2154 75.8927 56.1784 75.9317 56.1404 75.9707L47.3024 84.8097C46.8964 85.2097 46.3654 85.4197 45.8334 85.4197C44.6834 85.4197 43.7494 84.4897 43.7494 83.3397Z" fill="#495057"/>
</svg>
