<svg width="24" height="24" viewBox="0 0 24 24" fill="none" xmlns="http://www.w3.org/2000/svg">
<path d="M12.0001 21.2063C11.5019 21.2082 11.0232 21.0127 10.6688 20.6626L2.8782 12.8719C2.30274 12.2949 1.85066 11.6068 1.54948 10.8495C1.24829 10.0922 1.10428 9.28163 1.1262 8.46696C1.14812 7.65229 1.33552 6.85059 1.677 6.11062C2.01848 5.37064 2.50691 4.70786 3.11257 4.16257C3.69624 3.64153 4.37894 3.24347 5.1199 2.99219C5.86086 2.74091 6.64486 2.64156 7.42507 2.70007C8.98488 2.80342 10.4541 3.46972 11.5594 4.57507L12.0001 5.0157L12.6282 4.3782C13.2053 3.80274 13.8934 3.35066 14.6506 3.04948C15.4079 2.74829 16.2185 2.60428 17.0332 2.6262C17.8479 2.64812 18.6496 2.83552 19.3895 3.177C20.1295 3.51848 20.7923 4.00691 21.3376 4.61257C21.8586 5.19624 22.2567 5.87895 22.508 6.6199C22.7592 7.36086 22.8586 8.14486 22.8001 8.92507C22.6967 10.4849 22.0304 11.9541 20.9251 13.0594L13.3219 20.6626C13.1485 20.8361 12.9423 20.9735 12.7154 21.0668C12.4886 21.1601 12.2454 21.2075 12.0001 21.2063V21.2063ZM7.03132 4.9407C6.14554 4.92853 5.28684 5.24594 4.62195 5.83132C4.24188 6.17146 3.9352 6.58555 3.72065 7.04827C3.50611 7.51099 3.38821 8.01262 3.37417 8.52246C3.36013 9.03231 3.45024 9.53966 3.63899 10.0135C3.82775 10.4873 4.11118 10.9177 4.47195 11.2782L12.0001 18.8063L19.3313 11.4751C20.8219 9.97507 20.9719 7.57507 19.6688 6.12195C19.3287 5.74188 18.9146 5.4352 18.4519 5.22065C17.9892 5.00611 17.4875 4.88821 16.9777 4.87417C16.4678 4.86013 15.9605 4.95024 15.4867 5.13899C15.0128 5.32775 14.5825 5.61118 14.2219 5.97195L12.7969 7.39695C12.6924 7.50183 12.5682 7.58504 12.4315 7.64183C12.2947 7.69861 12.1481 7.72784 12.0001 7.72784C11.852 7.72784 11.7054 7.69861 11.5687 7.64183C11.4319 7.58504 11.3077 7.50183 11.2032 7.39695L9.9657 6.16882C9.58159 5.78092 9.12463 5.47273 8.62105 5.26197C8.11748 5.05121 7.57722 4.94203 7.03132 4.9407V4.9407Z" fill="#627D98"/>
</svg>
