<svg width="100" height="100" viewBox="0 0 100 100" fill="none" xmlns="http://www.w3.org/2000/svg">
<g clip-path="url(#clip0_356_18995)">
<path fill-rule="evenodd" clip-rule="evenodd" d="M83.333 12.5008V83.3346H16.667V12.5008C16.667 10.2013 18.534 8.33383 20.833 8.33383H79.167C81.466 8.33383 83.333 10.2013 83.333 12.5008ZM79.333 12.5008L79.167 12.3343H20.833L20.667 12.5008V79.3341H79.333V12.5008Z" fill="#495057"/>
<path fill-rule="evenodd" clip-rule="evenodd" d="M25.0003 91.6672L16.6664 83.3342H33.3324L25.0003 91.6672Z" fill="#495057"/>
<path fill-rule="evenodd" clip-rule="evenodd" d="M41.6673 91.6672L33.3334 83.3342H49.9994L41.6673 91.6672Z" fill="#495057"/>
<path fill-rule="evenodd" clip-rule="evenodd" d="M58.3343 91.6672L50.0003 83.3342H66.6664L58.3343 91.6672Z" fill="#495057"/>
<path fill-rule="evenodd" clip-rule="evenodd" d="M75.0003 91.6672L66.6664 83.3342H83.3324L75.0003 91.6672Z" fill="#495057"/>
<path d="M48.589 69.1299V23.6754H51.501V69.1299H48.589ZM58.3902 37.3117C58.1771 35.5125 57.313 34.1157 55.7978 33.1214C54.2827 32.1271 52.4243 31.6299 50.2225 31.6299C48.6127 31.6299 47.2041 31.8903 45.9967 32.4112C44.8011 32.932 43.866 33.6481 43.1913 34.5596C42.5284 35.4711 42.197 36.5068 42.197 37.6668C42.197 38.6375 42.4278 39.472 42.8894 40.1704C43.3629 40.8569 43.9666 41.431 44.7005 41.8927C45.4344 42.3425 46.2038 42.7154 47.0088 43.0113C47.8137 43.2954 48.5535 43.5262 49.2282 43.7038L52.9214 44.6981C53.8684 44.9467 54.9219 45.2899 56.0819 45.7279C57.2538 46.1659 58.3724 46.7637 59.4377 47.5212C60.5149 48.267 61.4027 49.2258 62.1011 50.3977C62.7995 51.5695 63.1487 53.0078 63.1487 54.7123C63.1487 56.6773 62.6338 58.4528 61.6039 60.039C60.586 61.6252 59.0945 62.8858 57.1295 63.821C55.1764 64.7561 52.803 65.2237 50.0095 65.2237C47.4053 65.2237 45.1503 64.8035 43.2446 63.963C41.3506 63.1226 39.8591 61.9507 38.7701 60.4474C37.6929 58.9441 37.0833 57.1981 36.9413 55.2095H41.4867C41.6051 56.5826 42.0668 57.7189 42.8717 58.6186C43.6884 59.5063 44.7183 60.1692 45.9612 60.6072C47.2159 61.0333 48.5653 61.2464 50.0095 61.2464C51.6903 61.2464 53.1996 60.9741 54.5372 60.4296C55.8748 59.8733 56.9342 59.1039 57.7154 58.1214C58.4967 57.1271 58.8873 55.967 58.8873 54.6413C58.8873 53.4339 58.55 52.4514 57.8752 51.6938C57.2005 50.9363 56.3127 50.3207 55.2119 49.8472C54.111 49.3738 52.9214 48.9595 51.643 48.6043L47.1686 47.3259C44.3277 46.5092 42.0786 45.3432 40.4214 43.8281C38.7642 42.3129 37.9356 40.3302 37.9356 37.8799C37.9356 35.8439 38.486 34.0684 39.5869 32.5532C40.6996 31.0262 42.1911 29.8425 44.0613 29.0021C45.9434 28.1498 48.0445 27.7236 50.3646 27.7236C52.7083 27.7236 54.7917 28.1439 56.6146 28.9843C58.4375 29.8129 59.8816 30.9493 60.947 32.3934C62.0242 33.8375 62.5923 35.477 62.6515 37.3117H58.3902Z" fill="#495057"/>
</g>
<defs>
<clipPath id="clip0_356_18995">
<rect width="100" height="100" fill="white"/>
</clipPath>
</defs>
</svg>
