<svg width="100" height="100" viewBox="0 0 100 100" fill="none" xmlns="http://www.w3.org/2000/svg">
<g clip-path="url(#clip0_356_19001)">
<path fill-rule="evenodd" clip-rule="evenodd" d="M83.333 83.3346H16.667V12.5008C16.667 10.2013 18.534 8.33383 20.833 8.33383H79.167C81.466 8.33383 83.333 10.2013 83.333 12.5008V83.3346ZM51.6 66.1346C58 65.9339 63.7 62.3843 63.7 55.034C63.7 47.4839 58.7 45.3338 51.6 43.784V30.5342C55.2 30.8843 57.2 32.9345 58 35.9342C58.25 36.9341 59.05 37.3346 59.95 37.3346C60.25 37.3346 60.5 37.2842 60.8 37.2338C61.75 36.9845 62.45 36.3842 62.45 35.3843C62.45 35.1341 62.4 34.8839 62.35 34.6346C61.1 30.2345 57.15 27.0341 51.6 26.6345V24.1838C51.6 23.3846 50.9 22.8842 50 22.8842C49.05 22.8842 48.4 23.3846 48.4 24.1838V26.6345C42.35 26.9846 37.15 30.4343 37.15 37.0844C37.15 43.2341 41.2 46.2338 48.4 47.6846V62.1845C43.75 61.7345 41.85 59.6843 40.95 55.8845C40.7 54.7838 39.85 54.2339 38.8 54.2339C38.6 54.2339 38.4 54.2339 38.2 54.2843C37.15 54.4841 36.3 55.1843 36.3 56.384C36.3 56.5838 36.3 56.7845 36.35 56.9843C37.5 62.1845 41.55 65.8844 48.4 66.1346V69.5339C48.4 70.334 49.1 70.8344 50 70.8344C50.85 70.8344 51.6 70.334 51.6 69.5339V66.1346ZM48.4 43.2341C43.05 42.1838 41.5 40.184 41.5 36.8846C41.5 33.434 44.05 30.8339 48.4 30.5342V43.2341ZM51.6 48.1841C55.95 49.2344 59.2 50.1344 59.2 55.0844C59.2 59.3846 56.55 61.8344 51.6 62.1845V48.1841Z" fill="#495057"/>
<path fill-rule="evenodd" clip-rule="evenodd" d="M83.333 83.3346H16.667V12.5008C16.667 10.2013 18.534 8.33383 20.833 8.33383H79.167C81.466 8.33383 83.333 10.2013 83.333 12.5008V83.3346ZM79.333 79.3341V12.5008L79.167 12.3343H20.833L20.667 12.5008V79.3341H79.333ZM44.4 53.675C44.4 52.0262 44.4 50.7986 44.4 50.7986C40.861 49.7087 38.161 48.1202 36.317 46.034C34.295 43.7471 33.15 40.8428 33.15 37.0844C33.15 32.4197 35.025 28.9007 37.905 26.4581C39.724 24.9155 41.987 23.813 44.488 23.192C44.676 22.1606 45.158 21.2804 45.845 20.5667C46.777 19.5991 48.192 18.8845 50 18.8845C51.723 18.8845 53.171 19.574 54.128 20.555C54.845 21.2894 55.341 22.2002 55.523 23.2631C57.434 23.7914 59.138 24.6113 60.604 25.6526C63.355 27.6065 65.29 30.3461 66.198 33.5411C66.227 33.6428 66.252 33.7463 66.272 33.8498L66.45 35.3843C66.45 36.7055 66.048 37.8062 65.402 38.7143C64.605 39.8366 63.368 40.6943 61.818 41.1029C61.699 41.1335 61.579 41.1596 61.458 41.1794L59.95 41.3342C58.652 41.3342 57.448 40.9706 56.466 40.3064C56.159 40.0985 55.868 39.8609 55.6 39.5909C55.6 40.2533 55.6 40.6673 55.6 40.6673C59.351 41.7581 62.389 43.2629 64.446 45.5687C66.444 47.8079 67.7 50.7896 67.7 55.034C67.7 60.0335 65.714 63.7253 62.717 66.2498C60.748 67.9076 58.292 69.0515 55.599 69.6518C55.569 71.0621 55.01 72.2573 54.101 73.1753C53.118 74.1689 51.635 74.834 50 74.834C48.277 74.834 46.829 74.1437 45.872 73.1636C44.98 72.2501 44.43 71.063 44.401 69.6491C42.033 69.1217 40.015 68.1983 38.336 66.9914C35.272 64.7891 33.279 61.6202 32.444 57.8483L32.469 57.9545L32.3 56.384C32.3 54.6236 32.959 53.2412 33.957 52.2035C34.851 51.2729 36.07 50.6177 37.452 50.3549L37.23 50.4035L38.8 50.2343C40.254 50.2343 41.549 50.6807 42.581 51.4511C43.33 52.01 43.963 52.7444 44.4 53.675ZM51.6 66.1346C58 65.9339 63.7 62.3843 63.7 55.034C63.7 47.4839 58.7 45.3338 51.6 43.784V30.5342C55.2 30.8843 57.2 32.9345 58 35.9342C58.25 36.9341 59.05 37.3346 59.95 37.3346C60.25 37.3346 60.5 37.2842 60.8 37.2338C61.75 36.9845 62.45 36.3842 62.45 35.3843C62.45 35.1341 62.4 34.8839 62.35 34.6346C61.1 30.2345 57.15 27.0341 51.6 26.6345V24.1838C51.6 23.3846 50.9 22.8842 50 22.8842C49.05 22.8842 48.4 23.3846 48.4 24.1838V26.6345C42.35 26.9846 37.15 30.4343 37.15 37.0844C37.15 43.2341 41.2 46.2338 48.4 47.6846V62.1845C43.75 61.7345 41.85 59.6843 40.95 55.8845C40.7 54.7838 39.85 54.2339 38.8 54.2339C38.6 54.2339 38.4 54.2339 38.2 54.2843C37.15 54.4841 36.3 55.1843 36.3 56.384C36.3 56.5838 36.3 56.7845 36.35 56.9843C37.5 62.1845 41.55 65.8844 48.4 66.1346V69.5339C48.4 70.334 49.1 70.8344 50 70.8344C50.85 70.8344 51.6 70.334 51.6 69.5339V66.1346ZM48.4 43.2341C43.05 42.1838 41.5 40.184 41.5 36.8846C41.5 33.434 44.05 30.8339 48.4 30.5342V43.2341ZM51.6 48.1841C55.95 49.2344 59.2 50.1344 59.2 55.0844C59.2 59.3846 56.55 61.8344 51.6 62.1845V48.1841Z" fill="#495057"/>
<path fill-rule="evenodd" clip-rule="evenodd" d="M25.0003 91.6672L16.6664 83.3342H33.3324L25.0003 91.6672Z" fill="#495057"/>
<path fill-rule="evenodd" clip-rule="evenodd" d="M41.6673 91.6672L33.3334 83.3342H49.9994L41.6673 91.6672Z" fill="#495057"/>
<path fill-rule="evenodd" clip-rule="evenodd" d="M58.3343 91.6672L50.0003 83.3342H66.6664L58.3343 91.6672Z" fill="#495057"/>
<path fill-rule="evenodd" clip-rule="evenodd" d="M75.0003 91.6672L66.6664 83.3342H83.3324L75.0003 91.6672Z" fill="#495057"/>
</g>
<defs>
<clipPath id="clip0_356_19001">
<rect width="100" height="100" fill="white"/>
</clipPath>
</defs>
</svg>
