<svg width="100" height="100" viewBox="0 0 100 100" fill="none" xmlns="http://www.w3.org/2000/svg">
<g clip-path="url(#clip0_528_3157)">
<path fill-rule="evenodd" clip-rule="evenodd" d="M13.0294 86.7694C7.97213 81.9385 19.1763 57.0518 19.1763 57.0518L42.7463 80.6218C42.7463 80.6218 19.119 92.5762 13.0294 86.7694ZM21.8725 83.8179C24.3325 84.2273 34.3671 81.1663 34.3352 78.108C34.3112 75.0434 24.7554 65.4876 21.6901 65.4628C18.6325 65.4317 15.5708 75.4656 15.9802 77.9256C16.3359 80.049 19.7498 83.4629 21.8725 83.8179Z" fill="#60605C"/>
<path fill-rule="evenodd" clip-rule="evenodd" d="M13.0294 86.7694C7.97213 81.9385 19.1763 57.0518 19.1763 57.0518L42.7463 80.6218C42.7463 80.6218 19.119 92.5762 13.0294 86.7694ZM21.8725 83.8179C24.3325 84.2273 34.3671 81.1663 34.3352 78.108C34.3112 75.0434 24.7554 65.4876 21.6901 65.4628C18.6325 65.4317 15.5708 75.4656 15.9802 77.9256C16.3359 80.049 19.7498 83.4629 21.8725 83.8179Z" fill="#60605C"/>
<path fill-rule="evenodd" clip-rule="evenodd" d="M19.7921 56.5578L43.3628 80.1285L87.0538 36.4375C88.6863 34.805 88.6749 32.1762 87.0485 30.5497L69.3708 12.8721C67.7444 11.2457 65.1156 11.2342 63.483 12.8668L19.7921 56.5578Z" fill="#60605C"/>
<path fill-rule="evenodd" clip-rule="evenodd" d="M19.7921 56.5578L63.483 12.8668C65.1156 11.2342 67.7444 11.2457 69.3708 12.8721L87.0485 30.5497C88.6749 32.1762 88.6863 34.805 87.0538 36.4375L43.3628 80.1285L19.7921 56.5578ZM25.6799 56.5631L43.3575 74.2407L84.1072 33.491L66.4296 15.8133L25.6799 56.5631Z" fill="#60605C"/>
</g>
<defs>
<clipPath id="clip0_528_3157">
<rect width="100" height="100" fill="white"/>
</clipPath>
</defs>
</svg>
