<svg width="100" height="100" viewBox="0 0 100 100" fill="none" xmlns="http://www.w3.org/2000/svg">
<g clip-path="url(#clip0_408_18912)">
<path fill-rule="evenodd" clip-rule="evenodd" d="M83.334 87.5009C83.334 89.7999 81.4673 91.6672 79.1669 91.6672H20.8343C18.5339 91.6672 16.6672 89.7999 16.6672 87.5009V12.501C16.6672 10.2 18.5339 8.33472 20.8343 8.33472H79.1669C81.4673 8.33472 83.334 10.2 83.334 12.501V87.5009ZM83.334 49.9998C83.334 49.4525 83.1207 48.9241 82.7242 48.5283L67.9917 33.7957C67.1793 32.9831 65.8584 32.9831 65.046 33.7957C64.2335 34.6105 64.2335 35.9304 65.046 36.743L76.2211 47.9178H35.4175C34.2673 47.9178 33.3339 48.8503 33.3339 49.9998C33.3339 51.1493 34.2673 52.0841 35.4175 52.0841H76.2211L65.046 63.2588C64.2335 64.0714 64.2335 65.3914 65.046 66.2041C65.8584 67.0167 67.1793 67.0167 67.9917 66.2041L82.7242 51.4735C83.1207 51.0777 83.334 50.5472 83.334 49.9998Z" fill="#5F5F5C"/>
</g>
<defs>
<clipPath id="clip0_408_18912">
<rect width="100" height="100" fill="white"/>
</clipPath>
</defs>
</svg>
