<svg width="25" height="31" viewBox="0 0 25 31" fill="none" xmlns="http://www.w3.org/2000/svg">
<path d="M10.321 30.3008C8.37027 30.3008 6.68939 29.9457 5.27841 29.2355C3.87689 28.5252 2.79735 27.5593 2.03977 26.3377C1.2822 25.1067 0.903409 23.7146 0.903409 22.1616C0.903409 20.9779 1.14962 19.9268 1.64205 19.0082C2.13447 18.0802 2.82102 17.2232 3.7017 16.4372C4.58239 15.6512 5.60038 14.8605 6.75568 14.065L11.4432 10.7554C12.2386 10.2345 12.8589 9.68529 13.304 9.10764C13.7491 8.52051 13.9716 7.79608 13.9716 6.93434C13.9716 6.25252 13.678 5.59911 13.0909 4.97411C12.5038 4.34911 11.7178 4.03661 10.733 4.03661C10.0511 4.03661 9.44981 4.20233 8.92898 4.53377C8.41761 4.86521 8.01515 5.29135 7.72159 5.81218C7.4375 6.32354 7.29545 6.86332 7.29545 7.4315C7.29545 8.09438 7.47538 8.76199 7.83523 9.43434C8.20455 10.1067 8.67803 10.8027 9.25568 11.5224C9.83333 12.2326 10.4394 12.9713 11.0739 13.7383L24.5824 29.8889H19.7812L8.60227 16.7497C7.66477 15.6417 6.79356 14.6001 5.98864 13.6247C5.18371 12.6398 4.5303 11.6455 4.02841 10.6417C3.53598 9.62847 3.28977 8.53472 3.28977 7.36048C3.28977 6.02525 3.5928 4.84154 4.19886 3.80934C4.81439 2.76767 5.6714 1.95328 6.76989 1.36616C7.86837 0.779036 9.15625 0.485476 10.6335 0.485476C12.1297 0.485476 13.4129 0.779036 14.483 1.36616C15.5625 1.94381 16.3911 2.71559 16.9688 3.6815C17.5559 4.63794 17.8494 5.68434 17.8494 6.8207C17.8494 8.20328 17.5038 9.42487 16.8125 10.4855C16.1307 11.5366 15.1884 12.5025 13.9858 13.3832L8.14773 17.6872C7.01136 18.5205 6.22064 19.3444 5.77557 20.1588C5.33996 20.9637 5.12216 21.5934 5.12216 22.048C5.12216 22.8813 5.33523 23.6531 5.76136 24.3633C6.19697 25.0735 6.80303 25.6417 7.57955 26.0679C8.36553 26.494 9.28409 26.7071 10.3352 26.7071C11.4148 26.7071 12.4659 26.4751 13.4886 26.011C14.5208 25.5376 15.4536 24.8605 16.2869 23.9798C17.1297 23.0991 17.7973 22.0432 18.2898 20.8122C18.7822 19.5811 19.0284 18.2033 19.0284 16.6787H22.8636C22.8636 18.5537 22.6506 20.1398 22.2244 21.4372C21.7983 22.7251 21.2822 23.7762 20.6761 24.5906C20.0795 25.3955 19.5161 26.0252 18.9858 26.4798C18.8153 26.6313 18.6544 26.7828 18.5028 26.9343C18.3513 27.0859 18.1903 27.2374 18.0199 27.3889C17.035 28.3832 15.8419 29.1171 14.4403 29.5906C13.0483 30.0641 11.6752 30.3008 10.321 30.3008Z" fill="#147D64"/>
</svg>
