<svg width="100" height="100" viewBox="0 0 100 100" fill="none" xmlns="http://www.w3.org/2000/svg">
<g clip-path="url(#clip0_408_18914)">
<path fill-rule="evenodd" clip-rule="evenodd" d="M83.3339 66.666V87.5C83.3339 89.799 81.4659 91.666 79.1669 91.666H20.8339C18.5339 91.666 16.6669 89.799 16.6669 87.5V12.5C16.6669 10.2 18.5339 8.33301 20.8339 8.33301H79.1669C81.4659 8.33301 83.3339 10.2 83.3339 12.5V33.333H79.3339V12.5L79.1669 12.333H20.8339L20.6669 12.5V87.5L20.8339 87.666H79.1669L79.3339 87.5V66.666H83.3339Z" fill="#60605C"/>
<path fill-rule="evenodd" clip-rule="evenodd" d="M76.2201 47.9171L65.0461 36.742C64.2331 35.929 64.2331 34.609 65.0461 33.796C65.8591 32.983 67.1791 32.983 67.9921 33.796L82.7231 48.527C83.1201 48.924 83.3331 49.453 83.3331 50C83.3331 50.547 83.1201 51.077 82.7231 51.473L67.9921 66.204C67.1791 67.017 65.8591 67.017 65.0461 66.204C64.2331 65.391 64.2331 64.0711 65.0461 63.2581L76.2201 52.0841H35.4161C34.2671 52.0841 33.3331 51.15 33.3331 50C33.3331 48.851 34.2671 47.9171 35.4161 47.9171H76.2201Z" fill="#5F5F5C"/>
</g>
<defs>
<clipPath id="clip0_408_18914">
<rect width="100" height="100" fill="white"/>
</clipPath>
</defs>
</svg>
