<svg width="100" height="100" viewBox="0 0 100 100" fill="none" xmlns="http://www.w3.org/2000/svg">
<g clip-path="url(#clip0_408_18911)">
<path d="M50.0002 18.5035C52.7998 18.5035 55.0694 16.227 55.0694 13.4188C55.0694 10.6105 52.7998 8.33405 50.0002 8.33405C47.2005 8.33405 44.9309 10.6105 44.9309 13.4188C44.9309 16.227 47.2005 18.5035 50.0002 18.5035Z" fill="#60605C"/>
<path fill-rule="evenodd" clip-rule="evenodd" d="M22.7055 68.7849C22.6921 68.5653 22.6848 68.3431 22.6848 68.1198C22.6848 64.5869 24.4842 61.4727 27.2145 59.6495C27.2072 59.2626 27.2035 58.8758 27.2035 58.4865C27.2035 37.8398 37.4077 21.0724 49.9844 21.0443H50.0161C62.5916 21.0724 72.797 37.8398 72.797 58.4865C72.797 58.8758 72.7933 59.2626 72.786 59.6495C75.5162 61.4727 77.3157 64.5869 77.3157 68.1198C77.3157 68.3431 77.3084 68.5653 77.295 68.7849H77.8827C79.2806 68.7849 80.417 69.9247 80.417 71.3281C80.417 72.7314 79.2806 73.87 77.8827 73.87H22.1178C20.7186 73.87 19.5835 72.7314 19.5835 71.3281C19.5835 69.9247 20.7186 68.7849 22.1178 68.7849H22.7055Z" fill="#60605C"/>
<path d="M50.0016 91.6673C54.2013 91.6673 57.6059 88.2524 57.6059 84.04C57.6059 79.8276 54.2013 76.4128 50.0016 76.4128C45.8018 76.4128 42.3972 79.8276 42.3972 84.04C42.3972 88.2524 45.8018 91.6673 50.0016 91.6673Z" fill="#60605C"/>
<path fill-rule="evenodd" clip-rule="evenodd" d="M50.0016 76.4128C54.1987 76.4128 57.606 79.8304 57.606 84.04C57.606 88.2497 54.1987 91.6673 50.0016 91.6673C45.8053 91.6673 42.3979 88.2497 42.3979 84.04C42.3979 79.8304 45.8053 76.4128 50.0016 76.4128ZM50.0016 80.413C49.0078 80.413 48.1082 80.8196 47.4571 81.4741C46.8025 82.1313 46.3977 83.0385 46.3977 84.04C46.3977 85.0416 46.8025 85.9487 47.4571 86.6059C48.1082 87.2604 49.0078 87.6671 50.0016 87.6671C50.9961 87.6671 51.8957 87.2604 52.5469 86.6059C53.2014 85.9487 53.6062 85.0416 53.6062 84.04C53.6062 83.0385 53.2014 82.1313 52.5469 81.4741C51.8957 80.8196 50.9961 80.413 50.0016 80.413Z" fill="#60605C"/>
</g>
<defs>
<clipPath id="clip0_408_18911">
<rect width="100" height="100" fill="white"/>
</clipPath>
</defs>
</svg>
