<svg width="100" height="100" viewBox="0 0 100 100" fill="none" xmlns="http://www.w3.org/2000/svg">
<g clip-path="url(#clip0_408_18913)">
<path d="M49.9999 18.5035C52.808 18.5035 55.0844 16.227 55.0844 13.4188C55.0844 10.6105 52.808 8.33405 49.9999 8.33405C47.1918 8.33405 44.9154 10.6105 44.9154 13.4188C44.9154 16.227 47.1918 18.5035 49.9999 18.5035Z" fill="#60605C"/>
<path fill-rule="evenodd" clip-rule="evenodd" d="M22.6232 68.7849C22.6098 68.5653 22.6024 68.3431 22.6024 68.1198C22.6024 64.5869 24.4073 61.4727 27.1457 59.6495C27.1384 59.2626 27.1347 58.8758 27.1347 58.4865C27.1347 37.8398 37.3697 21.0724 49.9842 21.0443H50.0159C62.6293 21.0724 72.8654 37.8398 72.8654 58.4865C72.8654 58.8758 72.8617 59.2626 72.8544 59.6495C75.5928 61.4727 77.3977 64.5869 77.3977 68.1198C77.3977 68.3431 77.3904 68.5653 77.377 68.7849H77.9664C79.3685 68.7849 80.5083 69.9247 80.5083 71.3281C80.5083 72.7314 79.3685 73.87 77.9664 73.87H22.0338C20.6304 73.87 19.4918 72.7314 19.4918 71.3281C19.4918 69.9247 20.6304 68.7849 22.0338 68.7849H22.6232ZM72.4749 68.7849C72.503 68.5677 72.5164 68.3455 72.5164 68.1198C72.5164 66.6615 71.9233 65.3399 70.9666 64.3819C70.5553 63.9707 70.0769 63.6265 69.5485 63.3678C69.0153 63.1067 68.4319 62.9321 67.8157 62.8638C67.9267 61.4311 67.9841 59.9692 67.9841 58.4865C67.9841 58.3169 67.9829 58.1472 67.9816 57.9788C67.9133 50.176 66.2671 42.9993 63.4969 37.3138C60.2533 30.6557 55.6148 25.944 50.0159 25.9257C50.005 25.9257 49.9952 25.9257 49.9842 25.9257C44.3853 25.944 39.7456 30.6557 36.5032 37.3138C33.7331 42.9993 32.0868 50.176 32.0185 57.9788C32.0173 58.1472 32.0161 58.3169 32.0161 58.4865C32.0161 59.9692 32.0734 61.4311 32.1845 62.8638C31.5682 62.9321 30.9849 63.1067 30.4516 63.3678C29.9232 63.6265 29.4448 63.9707 29.0336 64.3819C28.0768 65.3399 27.4838 66.6615 27.4838 68.1198C27.4838 68.3455 27.4972 68.5677 27.5253 68.7849H72.4749Z" fill="#60605C"/>
<path fill-rule="evenodd" clip-rule="evenodd" d="M50.0014 76.4128C54.2111 76.4128 57.6286 79.8304 57.6286 84.04C57.6286 88.2497 54.2111 91.6673 50.0014 91.6673C45.7924 91.6673 42.3749 88.2497 42.3749 84.04C42.3749 79.8304 45.7924 76.4128 50.0014 76.4128ZM50.0014 80.413C49.0012 80.413 48.0948 80.8196 47.4382 81.4762C46.7817 82.1327 46.3744 83.0391 46.3744 84.04C46.3744 85.0409 46.7817 85.9474 47.4382 86.6039C48.0948 87.2604 49.0012 87.6671 50.0014 87.6671C51.0023 87.6671 51.9087 87.2604 52.5653 86.6039C53.2218 85.9474 53.6285 85.0409 53.6285 84.04C53.6285 83.0391 53.2218 82.1327 52.5653 81.4762C51.9087 80.8196 51.0023 80.413 50.0014 80.413Z" fill="#60605C"/>
</g>
<defs>
<clipPath id="clip0_408_18913">
<rect width="100" height="100" fill="white"/>
</clipPath>
</defs>
</svg>
