<svg width="100" height="100" viewBox="0 0 100 100" fill="none" xmlns="http://www.w3.org/2000/svg">
<g clip-path="url(#clip0_441_19106)">
<path fill-rule="evenodd" clip-rule="evenodd" d="M87.5003 16.6686V83.3286C87.5003 85.6286 85.6333 87.4987 83.3333 87.4987H16.6662C14.3672 87.4987 12.5002 85.6286 12.5002 83.3286V16.6686C12.5002 14.3686 14.3672 12.4986 16.6662 12.4986H83.3333C85.6333 12.4986 87.5003 14.3686 87.5003 16.6686ZM83.3333 16.6686H16.6662V83.3286H83.3333V16.6686Z" fill="#60605C"/>
<path fill-rule="evenodd" clip-rule="evenodd" d="M47.9165 47.9187V27.0786C47.9165 25.9286 48.8505 24.9986 50.0005 24.9986C51.1495 24.9986 52.0835 25.9286 52.0835 27.0786V47.9187H72.9165C74.0665 47.9187 75.0005 48.8486 75.0005 49.9986C75.0005 51.1486 74.0665 52.0786 72.9165 52.0786H52.0835V72.9187C52.0835 74.0687 51.1495 74.9986 50.0005 74.9986C48.8505 74.9986 47.9165 74.0687 47.9165 72.9187V52.0786H27.0835C25.9335 52.0786 25.0005 51.1486 25.0005 49.9986C25.0005 48.8486 25.9335 47.9187 27.0835 47.9187H47.9165Z" fill="#60605C"/>
</g>
<defs>
<clipPath id="clip0_441_19106">
<rect width="100" height="100" fill="white"/>
</clipPath>
</defs>
</svg>
