<svg width="100" height="100" viewBox="0 0 100 100" fill="none" xmlns="http://www.w3.org/2000/svg">
<g clip-path="url(#clip0_441_19105)">
<path fill-rule="evenodd" clip-rule="evenodd" d="M87.5002 16.67V83.33C87.5002 85.63 85.6332 87.5 83.3332 87.5H16.6662C14.3672 87.5 12.5002 85.63 12.5002 83.33V16.67C12.5002 14.37 14.3672 12.5 16.6662 12.5H83.3332C85.6332 12.5 87.5002 14.37 87.5002 16.67ZM47.9162 47.92H27.0832C25.9332 47.92 25.0002 48.85 25.0002 50C25.0002 51.15 25.9332 52.08 27.0832 52.08H47.9162V72.92C47.9162 74.07 48.8502 75 50.0002 75C51.1502 75 52.0832 74.07 52.0832 72.92V52.08H72.9162C74.0662 52.08 75.0002 51.15 75.0002 50C75.0002 48.85 74.0662 47.92 72.9162 47.92H52.0832V27.08C52.0832 25.94 51.1502 25 50.0002 25C48.8502 25 47.9162 25.94 47.9162 27.08V47.92Z" fill="#60605C"/>
</g>
<defs>
<clipPath id="clip0_441_19105">
<rect width="100" height="100" fill="white"/>
</clipPath>
</defs>
</svg>
