<svg width="38" height="38" viewBox="0 0 38 38" fill="none" xmlns="http://www.w3.org/2000/svg">
<path d="M18 5V33" stroke="#F8F8F8"/>
<path d="M33 18L5 18" stroke="#F8F8F8"/>
<path d="M19 8.74228e-08C19 0.131322 18.9741 0.261358 18.9239 0.382684C18.8736 0.504009 18.8 0.614248 18.7071 0.707107C18.6142 0.799965 18.504 0.873625 18.3827 0.92388C18.2614 0.974134 18.1313 1 18 1C17.8687 1 17.7386 0.974134 17.6173 0.92388C17.496 0.873625 17.3858 0.799965 17.2929 0.707107C17.2 0.614248 17.1264 0.504009 17.0761 0.382683C17.0259 0.261358 17 0.131322 17 0L19 8.74228e-08Z" fill="#F8F8F8"/>
<path d="M17 38C17 37.8687 17.0259 37.7386 17.0761 37.6173C17.1264 37.496 17.2 37.3858 17.2929 37.2929C17.3858 37.2 17.496 37.1264 17.6173 37.0761C17.7386 37.0259 17.8687 37 18 37C18.1313 37 18.2614 37.0259 18.3827 37.0761C18.504 37.1264 18.6142 37.2 18.7071 37.2929C18.8 37.3858 18.8736 37.496 18.9239 37.6173C18.9741 37.7386 19 37.8687 19 38H17Z" fill="#F8F8F8"/>
<path d="M38 19C37.8687 19 37.7386 18.9741 37.6173 18.9239C37.496 18.8736 37.3858 18.8 37.2929 18.7071C37.2 18.6142 37.1264 18.504 37.0761 18.3827C37.0259 18.2614 37 18.1313 37 18C37 17.8687 37.0259 17.7386 37.0761 17.6173C37.1264 17.496 37.2 17.3858 37.2929 17.2929C37.3858 17.2 37.496 17.1264 37.6173 17.0761C37.7386 17.0259 37.8687 17 38 17V19Z" fill="#F8F8F8"/>
<path d="M3.49691e-07 17C0.131322 17 0.261358 17.0259 0.382684 17.0761C0.504009 17.1264 0.614249 17.2 0.707107 17.2929C0.799966 17.3858 0.873625 17.496 0.92388 17.6173C0.974134 17.7386 1 17.8687 1 18C1 18.1313 0.974134 18.2614 0.92388 18.3827C0.873625 18.504 0.799965 18.6142 0.707107 18.7071C0.614248 18.8 0.504009 18.8736 0.382683 18.9239C0.261358 18.9741 0.131322 19 0 19L3.49691e-07 17Z" fill="#F8F8F8"/>
</svg>
