<svg width="100" height="100" viewBox="0 0 100 100" fill="none" xmlns="http://www.w3.org/2000/svg">
<g clip-path="url(#clip0_488_18520)">
<path fill-rule="evenodd" clip-rule="evenodd" d="M64.321 67.27C58.823 72.08 51.626 75 43.752 75C26.505 75 12.502 60.99 12.502 43.75C12.502 26.5 26.505 12.5 43.752 12.5C60.999 12.5 75.002 26.5 75.002 43.75C75.002 51.62 72.082 58.8201 67.267 64.3201L86.888 83.9401C87.701 84.7501 87.701 86.07 86.888 86.89C86.075 87.7 84.755 87.7 83.942 86.89L64.321 67.27ZM43.752 16.66C36.278 16.66 29.508 19.7001 24.606 24.6001C19.703 29.5001 16.669 36.27 16.669 43.75C16.669 51.22 19.703 57.99 24.606 62.89C29.508 67.8 36.278 70.8301 43.752 70.8301C51.226 70.8301 57.996 67.8 62.899 62.89C67.801 57.99 70.835 51.22 70.835 43.75C70.835 36.27 67.801 29.5001 62.899 24.6001C57.996 19.7001 51.226 16.66 43.752 16.66Z" fill="#60605C"/>
</g>
<defs>
<clipPath id="clip0_488_18520">
<rect width="100" height="100" fill="white"/>
</clipPath>
</defs>
</svg>
