<svg width="100" height="100" viewBox="0 0 100 100" fill="none" xmlns="http://www.w3.org/2000/svg">
<path fill-rule="evenodd" clip-rule="evenodd" d="M53.6918 13.2669C56.7488 14.416 58.1378 16.6177 57.8578 19.8719C59.8778 20.3882 61.8428 21.1035 63.7228 22.0064C65.5998 19.3338 68.0788 18.5399 71.1598 19.6246C73.1958 21.0173 75.0908 22.607 76.8158 24.371C78.4188 27.2159 78.0678 29.7956 75.7618 32.1081C76.9768 33.803 78.0228 35.6134 78.8828 37.5138C82.0388 36.6725 84.4478 37.6578 86.1098 40.4696C86.7758 42.8446 87.2048 45.2804 87.3918 47.7407C86.7918 50.9513 84.8648 52.701 81.6108 52.99C81.4528 55.0695 81.0898 57.1291 80.5268 59.1366C83.4858 60.5216 84.6978 62.8247 84.1638 66.0467C83.1468 68.2948 81.9098 70.4368 80.4728 72.4414C77.9488 74.5142 75.3478 74.6165 72.6698 72.7464C71.2118 74.2376 69.6098 75.5819 67.8878 76.7586C69.2648 79.721 68.7128 82.2646 66.2328 84.3896C64.0088 85.4573 61.6848 86.3032 59.2948 86.9152C56.0288 86.8811 53.9708 85.2877 53.1208 82.1339C51.0458 82.3385 48.9548 82.3385 46.8788 82.1339C46.0298 85.2877 43.9718 86.8811 40.7058 86.9152C38.3158 86.3032 35.9918 85.4573 33.7678 84.3896C31.2868 82.2646 30.7358 79.721 32.1118 76.7586C30.3898 75.5819 28.7878 74.2376 27.3298 72.7464C24.6518 74.6165 22.0508 74.5142 19.5278 72.4414C18.0898 70.4368 16.8528 68.2948 15.8358 66.0467C15.3018 62.8247 16.5138 60.5216 19.4728 59.1366C18.9098 57.1291 18.5468 55.0695 18.3888 52.99C15.1358 52.701 13.2088 50.9513 12.6078 47.7407C12.7948 45.2804 13.2248 42.8446 13.8898 40.4696C15.5528 37.6578 17.9618 36.6725 21.1178 37.5138C21.9778 35.6134 23.0228 33.803 24.2388 32.1081C21.9318 29.7956 21.5808 27.2159 23.1848 24.371C24.9088 22.607 26.8038 21.0173 28.8408 19.6246C31.9208 18.5399 34.3998 19.3338 36.2768 22.0064C38.1568 21.1035 40.1218 20.3882 42.1428 19.8719C41.8618 16.6177 43.2508 14.416 46.3078 13.2669C48.7638 13.0243 51.2368 13.0243 53.6918 13.2669ZM52.7348 17.1975L52.7308 17.1965C51.8218 17.1227 50.9108 17.0848 49.9998 17.0848C49.0888 17.0848 48.1778 17.1226 47.2668 17.1975C46.8748 17.3794 46.5568 17.5973 46.3568 17.9137C46.0858 18.3438 46.0728 18.8933 46.1278 19.528C46.2958 21.4777 45.0288 23.2616 43.1338 23.7467C42.2508 23.9731 41.3808 24.2421 40.5248 24.5529C39.6698 24.8646 38.8298 25.2179 38.0088 25.612C36.2448 26.459 34.1278 25.9067 33.0038 24.3056C32.6368 23.7836 32.2738 23.3705 31.7898 23.2161C31.4338 23.1015 31.0508 23.1394 30.6298 23.2531C29.8858 23.7798 29.1648 24.3369 28.4668 24.9224C27.7688 25.5078 27.0948 26.1217 26.4448 26.7659C26.2618 27.1572 26.1578 27.5285 26.2088 27.899C26.2768 28.403 26.6208 28.8321 27.0708 29.2831C28.4518 30.6681 28.6288 32.8499 27.4888 34.4396C26.9578 35.1795 26.4638 35.9459 26.0088 36.7341C25.5538 37.5223 25.1378 38.3323 24.7618 39.1632C23.9548 40.9452 21.9778 41.8821 20.0878 41.3791C19.4708 41.2142 18.9278 41.1318 18.4578 41.3241C18.1118 41.4653 17.8418 41.741 17.5928 42.0981C17.3618 42.9801 17.1668 43.8707 17.0088 44.7678C16.8508 45.665 16.7288 46.5688 16.6448 47.4792C16.7568 47.897 16.9158 48.2484 17.1928 48.4995C17.5688 48.8415 18.1078 48.9495 18.7428 49.0054C20.6918 49.1787 22.2288 50.7362 22.3768 52.6868C22.4468 53.5954 22.5598 54.4991 22.7178 55.3954C22.8768 56.2916 23.0788 57.1802 23.3248 58.0584C23.8518 59.9418 22.9398 61.9313 21.1678 62.7602C20.5898 63.0302 20.1208 63.3163 19.8848 63.7654C19.7108 64.096 19.6808 64.4807 19.7198 64.9145C20.1098 65.7388 20.5328 66.5459 20.9878 67.3351C21.4438 68.1242 21.9308 68.8944 22.4518 69.6466C22.8058 69.8949 23.1538 70.0606 23.5278 70.0758C24.0358 70.0957 24.5168 69.8323 25.0398 69.4666C26.6438 68.3469 28.8228 68.5515 30.1908 69.9507C30.8278 70.6016 31.4958 71.2211 32.1928 71.8066C32.8908 72.3911 33.6168 72.9425 34.3688 73.456C35.9838 74.5606 36.5638 76.6704 35.7388 78.4448C35.4708 79.0227 35.2948 79.5429 35.4028 80.0402C35.4818 80.405 35.7058 80.7185 36.0148 81.0264C36.8428 81.4063 37.6868 81.753 38.5428 82.0647C39.3978 82.3764 40.2668 82.6531 41.1498 82.8946C41.5798 82.8568 41.9538 82.7611 42.2488 82.5318C42.6508 82.2211 42.8508 81.7095 43.0168 81.0927C43.5258 79.2046 45.3258 77.9608 47.2728 78.1531C48.1798 78.2431 49.0898 78.2876 49.9998 78.2876C50.9098 78.2876 51.8208 78.2431 52.7268 78.1531C54.6738 77.9608 56.4748 79.2046 56.9828 81.0927C57.1488 81.7095 57.3488 82.2211 57.7508 82.5318C58.0458 82.7611 58.4188 82.8567 58.8538 82.8937C59.7328 82.653 60.6018 82.3764 61.4578 82.0647C62.3138 81.753 63.1568 81.4063 63.9878 81.0245C64.2938 80.7185 64.5178 80.405 64.5978 80.0402C64.7058 79.5429 64.5298 79.0227 64.2608 78.4448C63.4368 76.6704 64.0158 74.5606 65.6308 73.456C66.3838 72.9425 67.1098 72.3911 67.8068 71.8066C68.5038 71.2211 69.1728 70.6016 69.8098 69.9507C71.1768 68.5515 73.3558 68.3469 74.9598 69.4666C75.4828 69.8323 75.9648 70.0957 76.4728 70.0758C76.8458 70.0606 77.1938 69.8949 77.5498 69.6438C78.0688 68.8944 78.5568 68.1242 79.0118 67.3351C79.4668 66.5459 79.8908 65.7388 80.2818 64.9117C80.3198 64.4807 80.2898 64.097 80.1158 63.7654C79.8788 63.3163 79.4098 63.0302 78.8318 62.7602C77.0598 61.9313 76.1478 59.9418 76.6758 58.0584C76.9218 57.1802 77.1238 56.2916 77.2818 55.3954C77.4398 54.4991 77.5538 53.5954 77.6228 52.6868C77.7708 50.7362 79.3088 49.1787 81.2568 49.0054C81.8928 48.9495 82.4308 48.8415 82.8078 48.4995C83.0838 48.2484 83.2438 47.8979 83.3558 47.4763C83.2708 46.5687 83.1488 45.665 82.9908 44.7678C82.8328 43.8707 82.6378 42.9801 82.4058 42.0953C82.1578 41.7409 81.8878 41.4653 81.5418 41.3241C81.0718 41.1318 80.5288 41.2142 79.9128 41.3791C78.0218 41.8821 76.0448 40.9452 75.2378 39.1632C74.8628 38.3323 74.4458 37.5223 73.9908 36.7341C73.5358 35.9459 73.0418 35.1795 72.5108 34.4396C71.3708 32.8499 71.5478 30.6681 72.9288 29.2831C73.3798 28.8321 73.7228 28.403 73.7918 27.899C73.8418 27.5295 73.7388 27.1581 73.5538 26.7631C72.9048 26.1217 72.2308 25.5078 71.5338 24.9224C70.8358 24.3369 70.1138 23.7798 69.3668 23.2512C68.9498 23.1394 68.5658 23.1015 68.2098 23.2161C67.7258 23.3705 67.3628 23.7836 66.9968 24.3056C65.8718 25.9067 63.7548 26.459 61.9918 25.612C61.1698 25.2179 60.3298 24.8646 59.4748 24.5529C58.6198 24.2421 57.7488 23.9731 56.8658 23.7467C54.9708 23.2616 53.7048 21.4777 53.8718 19.528C53.9268 18.8933 53.9138 18.3438 53.6428 17.9137C53.4438 17.5982 53.1258 17.3803 52.7348 17.1975ZM49.9998 33.5301C54.7068 33.5301 58.9708 35.44 62.0578 38.5275C65.1448 41.615 67.0548 45.879 67.0548 50.5846C67.0548 55.2911 65.1448 59.5553 62.0578 62.6427C58.9708 65.7302 54.7068 67.6401 49.9998 67.6401C45.2938 67.6401 41.0298 65.7302 37.9428 62.6427C34.8548 59.5553 32.9458 55.2911 32.9458 50.5846C32.9458 45.879 34.8548 41.615 37.9428 38.5275C41.0298 35.44 45.2938 33.5301 49.9998 33.5301ZM49.9998 37.5308C42.7948 37.5308 36.9458 43.3799 36.9458 50.5846C36.9458 57.7903 42.7948 63.6394 49.9998 63.6394C57.2048 63.6394 63.0548 57.7903 63.0548 50.5846C63.0548 43.3799 57.2048 37.5308 49.9998 37.5308Z" fill="#495057"/>
</svg>
