<svg width="100" height="100" viewBox="0 0 100 100" fill="none" xmlns="http://www.w3.org/2000/svg">
<g clip-path="url(#clip0_356_19000)">
<path fill-rule="evenodd" clip-rule="evenodd" d="M71.786 31.1608C71.7464 31.2074 71.7054 31.2527 71.6615 31.2965L57.5512 45.4068L69.1647 45.4068C69.1725 45.4061 69.1803 45.4068 69.1881 45.4061C70.3272 45.4181 71.2486 46.348 71.2479 47.49C71.2486 48.6319 70.3272 49.5604 69.1874 49.5731C69.1803 49.5731 69.1732 49.5731 69.1647 49.5731L52.7288 49.5731C52.6573 49.5809 52.5838 49.5851 52.5103 49.5851C51.9566 49.5844 51.4291 49.3666 51.0367 48.9742C50.6456 48.5832 50.4278 48.0557 50.4271 47.502L50.4271 30.8355C50.4271 29.6857 51.3605 28.7524 52.511 28.7517C53.6607 28.7517 54.5941 29.685 54.5941 30.8348L54.5934 42.4716L68.715 28.35L68.7094 28.3444L74.6017 22.452C75.4149 21.6389 76.735 21.6396 77.5475 22.452C78.3607 23.2652 78.3614 24.5854 77.5482 25.3986L71.786 31.1608Z" fill="#495057"/>
<path fill-rule="evenodd" clip-rule="evenodd" d="M28.2149 68.839C28.2545 68.7923 28.2955 68.7471 28.3393 68.7032L42.4496 54.5929L30.8361 54.5929C30.8283 54.5936 30.8206 54.5929 30.8128 54.5936C29.6736 54.5816 28.7523 53.6518 28.753 52.5098C28.7523 51.3678 29.6736 50.4394 30.8135 50.4267C30.8206 50.4267 30.8276 50.4267 30.8361 50.4267L47.2721 50.4267C47.3435 50.4189 47.417 50.4146 47.4906 50.4146C48.0443 50.4153 48.5718 50.6331 48.9642 51.0256C49.3552 51.4166 49.573 51.9441 49.5737 52.4978L49.5737 69.1643C49.5737 70.314 48.6403 71.2474 47.4899 71.2481C46.3401 71.2481 45.4067 70.3147 45.4067 69.165L45.4075 57.5281L31.2858 71.6498L31.2915 71.6554L25.3992 77.5477C24.586 78.3609 23.2658 78.3602 22.4534 77.5477C21.6402 76.7346 21.6395 75.4144 22.4527 74.6012L28.2149 68.839Z" fill="#495057"/>
</g>
<defs>
<clipPath id="clip0_356_19000">
<rect width="100" height="100" fill="white"/>
</clipPath>
</defs>
</svg>
