<svg width="100" height="100" viewBox="0 0 100 100" fill="none" xmlns="http://www.w3.org/2000/svg">
<path fill-rule="evenodd" clip-rule="evenodd" d="M87.5 16.6699V83.33C87.5 85.63 85.633 87.5 83.333 87.5H16.666C14.367 87.5 12.5 85.63 12.5 83.33V16.6699C12.5 14.3699 14.367 12.5 16.666 12.5H83.333C85.633 12.5 87.5 14.3699 87.5 16.6699ZM50 58.33C50 57.19 49.066 56.25 47.916 56.25H18.75C17.6 56.25 16.666 57.19 16.666 58.33C16.666 59.49 17.6 60.4199 18.75 60.4199H47.916C49.066 60.4199 50 59.49 50 58.33ZM66.666 41.6699C66.666 40.5199 65.733 39.59 64.583 39.59H18.75C17.6 39.59 16.666 40.5199 16.666 41.6699C16.666 42.8199 17.6 43.75 18.75 43.75H64.583C65.733 43.75 66.666 42.8199 66.666 41.6699ZM33.333 75C33.333 73.85 32.399 72.9199 31.25 72.9199H18.75C17.6 72.9199 16.666 73.85 16.666 75C16.666 76.15 17.6 77.09 18.75 77.09H31.25C32.399 77.09 33.333 76.15 33.333 75ZM83.333 25C83.333 23.85 82.399 22.9199 81.25 22.9199H18.75C17.6 22.9199 16.666 23.85 16.666 25C16.666 26.15 17.6 27.09 18.75 27.09H81.25C82.399 27.09 83.333 26.15 83.333 25Z" fill="#495057"/>
<path fill-rule="evenodd" clip-rule="evenodd" d="M87.5 16.6699V83.33C87.5 85.63 85.633 87.5 83.333 87.5H16.666C14.367 87.5 12.5 85.63 12.5 83.33V16.6699C12.5 14.3699 14.367 12.5 16.666 12.5H83.333C85.633 12.5 87.5 14.3699 87.5 16.6699ZM83.333 25C83.333 23.85 82.399 22.9199 81.25 22.9199H18.75C17.6 22.9199 16.666 23.85 16.666 25C16.666 26.15 17.6 27.09 18.75 27.09H81.25C82.399 27.09 83.333 26.15 83.333 25ZM16.666 19.11C17.318 18.88 18.019 18.75 18.75 18.75H81.25C81.98 18.75 82.681 18.88 83.333 19.11V16.6699H16.666V19.11ZM66.666 41.6699C66.666 40.5199 65.733 39.59 64.583 39.59H18.75C17.6 39.59 16.666 40.5199 16.666 41.6699C16.666 42.8199 17.6 43.75 18.75 43.75H64.583C65.733 43.75 66.666 42.8199 66.666 41.6699ZM33.333 75C33.333 73.85 32.399 72.9199 31.25 72.9199H18.75C17.6 72.9199 16.666 73.85 16.666 75C16.666 76.15 17.6 77.09 18.75 77.09H31.25C32.399 77.09 33.333 76.15 33.333 75ZM16.666 35.7799C17.318 35.5399 18.019 35.4199 18.75 35.4199H64.583C66.308 35.4199 67.871 36.12 69.002 37.25C70.133 38.38 70.833 39.9399 70.833 41.6699C70.833 43.3899 70.133 44.96 69.002 46.09C67.871 47.22 66.308 47.9199 64.583 47.9199H18.75C18.019 47.9199 17.318 47.7899 16.666 47.5599V52.4399C17.318 52.2099 18.019 52.09 18.75 52.09H47.916C49.641 52.09 51.204 52.7899 52.335 53.9199C53.467 55.0499 54.166 56.61 54.166 58.33C54.166 60.06 53.467 61.62 52.335 62.76C51.204 63.89 49.641 64.59 47.916 64.59H18.75C18.019 64.59 17.318 64.46 16.666 64.23V69.11C17.318 68.88 18.019 68.75 18.75 68.75H31.25C32.974 68.75 34.537 69.45 35.669 70.58C36.8 71.71 37.5 73.28 37.5 75C37.5 76.73 36.8 78.2899 35.669 79.4199C34.537 80.5499 32.974 81.25 31.25 81.25H18.75C18.019 81.25 17.318 81.1299 16.666 80.8999V83.33H83.333V30.8999C82.681 31.1299 81.98 31.25 81.25 31.25H18.75C18.019 31.25 17.318 31.1299 16.666 30.8999V35.7799ZM50 58.33C50 57.19 49.066 56.25 47.916 56.25H18.75C17.6 56.25 16.666 57.19 16.666 58.33C16.666 59.49 17.6 60.4199 18.75 60.4199H47.916C49.066 60.4199 50 59.49 50 58.33Z" fill="#495057"/>
</svg>
