<svg width="100" height="100" viewBox="0 0 100 100" fill="none" xmlns="http://www.w3.org/2000/svg">
<path fill-rule="evenodd" clip-rule="evenodd" d="M83.3334 24.9967C83.3334 23.8467 82.3997 22.9167 81.25 22.9167H18.7504C17.6007 22.9167 16.667 23.8467 16.667 24.9967C16.667 26.1467 17.6007 27.0767 18.7504 27.0767H81.25C82.3997 27.0767 83.3334 26.1467 83.3334 24.9967Z" fill="#495057"/>
<path fill-rule="evenodd" clip-rule="evenodd" d="M83.3334 24.9967C83.3334 26.1467 82.3997 27.0767 81.25 27.0767H18.7504C17.6007 27.0767 16.667 26.1467 16.667 24.9967C16.667 23.8467 17.6007 22.9167 18.7504 22.9167H81.25C82.3997 22.9167 83.3334 23.8467 83.3334 24.9967Z" fill="#495057"/>
<path fill-rule="evenodd" clip-rule="evenodd" d="M66.6666 41.6667C66.6666 40.5167 65.7332 39.5866 64.5837 39.5866H18.7497C17.6003 39.5866 16.6669 40.5167 16.6669 41.6667C16.6669 42.8167 17.6003 43.7466 18.7497 43.7466H64.5837C65.7332 43.7466 66.6666 42.8167 66.6666 41.6667Z" fill="#495057"/>
<path fill-rule="evenodd" clip-rule="evenodd" d="M66.6666 41.6667C66.6666 42.8167 65.7332 43.7466 64.5837 43.7466H18.7497C17.6003 43.7466 16.6669 42.8167 16.6669 41.6667C16.6669 40.5167 17.6003 39.5866 18.7497 39.5866H64.5837C65.7332 39.5866 66.6666 40.5167 66.6666 41.6667Z" fill="#495057"/>
<path fill-rule="evenodd" clip-rule="evenodd" d="M50 58.3267C50 57.1767 49.0663 56.2466 47.9166 56.2466H18.7503C17.6 56.2466 16.6669 57.1767 16.6669 58.3267C16.6669 59.4767 17.6 60.4066 18.7503 60.4066H47.9166C49.0663 60.4066 50 59.4767 50 58.3267Z" fill="#495057"/>
<path fill-rule="evenodd" clip-rule="evenodd" d="M50 58.3267C50 59.4767 49.0663 60.4066 47.9166 60.4066H18.7503C17.6 60.4066 16.6669 59.4767 16.6669 58.3267C16.6669 57.1767 17.6 56.2466 18.7503 56.2466H47.9166C49.0663 56.2466 50 57.1767 50 58.3267Z" fill="#495057"/>
<path fill-rule="evenodd" clip-rule="evenodd" d="M33.3333 74.9977C33.3333 73.8477 32.3999 72.9176 31.2499 72.9176H18.7499C17.6002 72.9176 16.6667 73.8477 16.6667 74.9977C16.6667 76.1477 17.6002 77.0777 18.7499 77.0777H31.2499C32.3999 77.0777 33.3333 76.1477 33.3333 74.9977Z" fill="#495057"/>
<path fill-rule="evenodd" clip-rule="evenodd" d="M33.3333 74.9977C33.3333 76.1477 32.3999 77.0777 31.2499 77.0777H18.7499C17.6002 77.0777 16.6667 76.1477 16.6667 74.9977C16.6667 73.8477 17.6002 72.9176 18.7499 72.9176H31.2499C32.3999 72.9176 33.3333 73.8477 33.3333 74.9977Z" fill="#495057"/>
</svg>
