<svg width="24" height="24" viewBox="0 0 24 24" fill="none" xmlns="http://www.w3.org/2000/svg">
<path d="M22.7626 11.6251L12.9751 1.8376C12.7572 1.6176 12.4881 1.45527 12.1918 1.36526C11.8956 1.27524 11.5816 1.26037 11.2782 1.32197L3.72197 2.83135C3.50264 2.87633 3.30134 2.9847 3.14302 3.14302C2.9847 3.30134 2.87633 3.50264 2.83135 3.72197L1.32197 11.2782C1.26037 11.5816 1.27524 11.8956 1.36526 12.1918C1.45527 12.4881 1.6176 12.7572 1.8376 12.9751L11.6251 22.7626C11.7986 22.9381 12.0052 23.0773 12.2329 23.1724C12.4606 23.2675 12.7049 23.3164 12.9517 23.3164C13.1984 23.3164 13.4427 23.2675 13.6704 23.1724C13.8981 23.0773 14.1047 22.9381 14.2782 22.7626L22.7626 14.2782C22.9381 14.1047 23.0773 13.8981 23.1724 13.6704C23.2675 13.4427 23.3164 13.1984 23.3164 12.9517C23.3164 12.7049 23.2675 12.4606 23.1724 12.2329C23.0773 12.0052 22.9381 11.7986 22.7626 11.6251ZM12.9563 20.9063L3.57197 11.522L4.89385 4.89385L11.522 3.57197L20.9063 12.9563L12.9563 20.9063ZM9.3751 7.8751C9.3751 8.17177 9.28712 8.46178 9.1223 8.70845C8.95748 8.95513 8.72321 9.14738 8.44912 9.26092C8.17503 9.37445 7.87343 9.40415 7.58246 9.34627C7.29149 9.2884 7.02422 9.14554 6.81444 8.93576C6.60466 8.72598 6.4618 8.4587 6.40392 8.16773C6.34604 7.87676 6.37575 7.57516 6.48928 7.30107C6.60281 7.02698 6.79507 6.79271 7.04174 6.62789C7.28842 6.46307 7.57842 6.3751 7.8751 6.3751C8.27292 6.3751 8.65445 6.53313 8.93576 6.81444C9.21706 7.09574 9.3751 7.47727 9.3751 7.8751Z" fill="#627D98"/>
</svg>
