<svg width="100" height="100" viewBox="0 0 100 100" fill="none" xmlns="http://www.w3.org/2000/svg">
<g clip-path="url(#clip0_356_19002)">
<path fill-rule="evenodd" clip-rule="evenodd" d="M84.1945 12.4448V87.5559C84.1945 89.8557 82.3268 91.7225 80.0278 91.7225H25.0274C22.7275 91.7225 20.8607 89.8557 20.8607 87.5559V12.4448C20.8607 10.1449 22.7275 8.27698 25.0274 8.27698H80.0278C82.3268 8.27698 84.1945 10.1449 84.1945 12.4448ZM58.7573 75.0006C58.7573 73.8501 57.8234 72.9167 56.6739 72.9167H34.194C33.0445 72.9167 32.1106 73.8501 32.1106 75.0006C32.1106 76.1499 33.0445 77.0833 34.194 77.0833H56.6739C57.8234 77.0833 58.7573 76.1499 58.7573 75.0006ZM58.7573 49.9997C58.7573 48.8504 57.8234 47.917 56.6739 47.917H34.194C33.0445 47.917 32.1106 48.8504 32.1106 49.9997C32.1106 51.1502 33.0445 52.0836 34.194 52.0836H56.6739C57.8234 52.0836 58.7573 51.1502 58.7573 49.9997ZM58.7573 37.4999C58.7573 36.3506 57.8234 35.4172 56.6739 35.4172H34.194C33.0445 35.4172 32.1106 36.3506 32.1106 37.4999C32.1106 38.6504 33.0445 39.5838 34.194 39.5838H56.6739C57.8234 39.5838 58.7573 38.6504 58.7573 37.4999ZM58.7573 25.0001C58.7573 23.8507 57.8234 22.9173 56.6739 22.9173H34.194C33.0445 22.9173 32.1106 23.8507 32.1106 25.0001C32.1106 26.1494 33.0445 27.084 34.194 27.084H56.6739C57.8234 27.084 58.7573 26.1494 58.7573 25.0001ZM75.8611 25.0001C75.8611 23.8507 74.9273 22.9173 73.7778 22.9173H65.4443C64.2939 22.9173 63.361 23.8507 63.361 25.0001C63.361 26.1494 64.2939 27.084 65.4443 27.084H73.7778C74.9273 27.084 75.8611 26.1494 75.8611 25.0001ZM75.8611 49.9997C75.8611 48.8504 74.9273 47.917 73.7778 47.917H65.4443C64.2939 47.917 63.361 48.8504 63.361 49.9997C63.361 51.1502 64.2939 52.0836 65.4443 52.0836H73.7778C74.9273 52.0836 75.8611 51.1502 75.8611 49.9997ZM75.8611 75.0006C75.8611 73.8501 74.9273 72.9167 73.7778 72.9167H65.4443C64.2939 72.9167 63.361 73.8501 63.361 75.0006C63.361 76.1499 64.2939 77.0833 65.4443 77.0833H73.7778C74.9273 77.0833 75.8611 76.1499 75.8611 75.0006ZM58.7573 62.5007C58.7573 61.3502 57.8234 60.4169 56.6739 60.4169H34.194C33.0445 60.4169 32.1106 61.3502 32.1106 62.5007C32.1106 63.6501 33.0445 64.5835 34.194 64.5835H56.6739C57.8234 64.5835 58.7573 63.6501 58.7573 62.5007ZM75.8611 37.4999C75.8611 36.3506 74.9273 35.4172 73.7778 35.4172H65.4443C64.2939 35.4172 63.361 36.3506 63.361 37.4999C63.361 38.6504 64.2939 39.5838 65.4443 39.5838H73.7778C74.9273 39.5838 75.8611 38.6504 75.8611 37.4999ZM75.8611 62.5007C75.8611 61.3502 74.9273 60.4169 73.7778 60.4169H65.4443C64.2939 60.4169 63.361 61.3502 63.361 62.5007C63.361 63.6501 64.2939 64.5835 65.4443 64.5835H73.7778C74.9273 64.5835 75.8611 63.6501 75.8611 62.5007Z" fill="#495057"/>
<path fill-rule="evenodd" clip-rule="evenodd" d="M84.1945 12.4448V87.5559C84.1945 89.8557 82.3268 91.7225 80.0278 91.7225H25.0274C22.7275 91.7225 20.8607 89.8557 20.8607 87.5559V12.4448C20.8607 10.1449 22.7275 8.27698 25.0274 8.27698H80.0278C82.3268 8.27698 84.1945 10.1449 84.1945 12.4448ZM80.1941 12.4448L80.0278 12.2772H25.0274L24.8612 12.4448V87.5559L25.0274 87.7234H80.0278L80.1941 87.5559V12.4448ZM61.0591 58.2846C61.0867 58.2563 61.1142 58.2268 61.1427 58.1984C62.2438 57.0975 63.7657 56.4166 65.4443 56.4166H73.7778C75.4564 56.4166 76.9774 57.0975 78.0784 58.1984C79.1804 59.3006 79.8606 60.8216 79.8606 62.5007C79.8606 64.1787 79.1804 65.7009 78.0784 66.8019C76.9774 67.9028 75.4564 68.5837 73.7778 68.5837H65.4443C63.7657 68.5837 62.2438 67.9028 61.1427 66.8019C61.1142 66.7736 61.0867 66.7452 61.0591 66.7157C61.0316 66.7452 61.0031 66.7736 60.9755 66.8019C59.8735 67.9028 58.3526 68.5837 56.6739 68.5837H34.194C32.5153 68.5837 30.9944 67.9028 29.8924 66.8019C28.7913 65.7009 28.1111 64.1787 28.1111 62.5007C28.1111 60.8216 28.7913 59.3006 29.8924 58.1984C30.9944 57.0975 32.5153 56.4166 34.194 56.4166H56.6739C58.3526 56.4166 59.8735 57.0975 60.9755 58.1984C61.0031 58.2268 61.0316 58.2563 61.0591 58.2846ZM75.8611 62.5007C75.8611 61.3502 74.9273 60.4169 73.7778 60.4169H65.4443C64.2939 60.4169 63.361 61.3502 63.361 62.5007C63.361 63.6501 64.2939 64.5835 65.4443 64.5835H73.7778C74.9273 64.5835 75.8611 63.6501 75.8611 62.5007ZM58.7573 62.5007C58.7573 61.3502 57.8234 60.4169 56.6739 60.4169H34.194C33.0445 60.4169 32.1106 61.3502 32.1106 62.5007C32.1106 63.6501 33.0445 64.5835 34.194 64.5835H56.6739C57.8234 64.5835 58.7573 63.6501 58.7573 62.5007ZM61.0591 45.7847C61.0867 45.7552 61.1142 45.7269 61.1427 45.6986C62.2438 44.5977 63.7657 43.9168 65.4443 43.9168H73.7778C75.4564 43.9168 76.9774 44.5977 78.0784 45.6986C79.1804 46.8007 79.8606 48.3218 79.8606 49.9997C79.8606 51.6789 79.1804 53.1999 78.0784 54.302C76.9774 55.403 75.4564 56.0839 73.7778 56.0839H65.4443C63.7657 56.0839 62.2438 55.403 61.1427 54.302C61.1142 54.2737 61.0867 54.2442 61.0591 54.2159C61.0316 54.2442 61.0031 54.2737 60.9755 54.302C59.8735 55.403 58.3526 56.0839 56.6739 56.0839H34.194C32.5153 56.0839 30.9944 55.403 29.8924 54.302C28.7913 53.1999 28.1111 51.6789 28.1111 49.9997C28.1111 48.3218 28.7913 46.8007 29.8924 45.6986C30.9944 44.5977 32.5153 43.9168 34.194 43.9168H56.6739C58.3526 43.9168 59.8735 44.5977 60.9755 45.6986C61.0031 45.7269 61.0316 45.7552 61.0591 45.7847ZM58.7573 49.9997C58.7573 48.8504 57.8234 47.917 56.6739 47.917H34.194C33.0445 47.917 32.1106 48.8504 32.1106 49.9997C32.1106 51.1502 33.0445 52.0836 34.194 52.0836H56.6739C57.8234 52.0836 58.7573 51.1502 58.7573 49.9997ZM75.8611 49.9997C75.8611 48.8504 74.9273 47.917 73.7778 47.917H65.4443C64.2939 47.917 63.361 48.8504 63.361 49.9997C63.361 51.1502 64.2939 52.0836 65.4443 52.0836H73.7778C74.9273 52.0836 75.8611 51.1502 75.8611 49.9997ZM61.0591 70.7844C61.0867 70.7561 61.1142 70.7278 61.1427 70.6994C62.2438 69.5973 63.7657 68.9165 65.4443 68.9165H73.7778C75.4564 68.9165 76.9774 69.5973 78.0784 70.6994C79.1804 71.8004 79.8606 73.3214 79.8606 75.0006C79.8606 76.6797 79.1804 78.2008 78.0784 79.3017C76.9774 80.4027 75.4564 81.0835 73.7778 81.0835H65.4443C63.7657 81.0835 62.2438 80.4027 61.1427 79.3017C61.1142 79.2734 61.0867 79.2451 61.0591 79.2156C61.0316 79.2451 61.0031 79.2734 60.9755 79.3017C59.8735 80.4027 58.3526 81.0835 56.6739 81.0835H34.194C32.5153 81.0835 30.9944 80.4027 29.8924 79.3017C28.7913 78.2008 28.1111 76.6797 28.1111 75.0006C28.1111 73.3214 28.7913 71.8004 29.8924 70.6994C30.9944 69.5973 32.5153 68.9165 34.194 68.9165H56.6739C58.3526 68.9165 59.8735 69.5973 60.9755 70.6994C61.0031 70.7278 61.0316 70.7561 61.0591 70.7844ZM58.7573 75.0006C58.7573 73.8501 57.8234 72.9167 56.6739 72.9167H34.194C33.0445 72.9167 32.1106 73.8501 32.1106 75.0006C32.1106 76.1499 33.0445 77.0833 34.194 77.0833H56.6739C57.8234 77.0833 58.7573 76.1499 58.7573 75.0006ZM75.8611 75.0006C75.8611 73.8501 74.9273 72.9167 73.7778 72.9167H65.4443C64.2939 72.9167 63.361 73.8501 63.361 75.0006C63.361 76.1499 64.2939 77.0833 65.4443 77.0833H73.7778C74.9273 77.0833 75.8611 76.1499 75.8611 75.0006ZM61.0591 20.7839C61.0867 20.7556 61.1142 20.7273 61.1427 20.6989C62.2438 19.598 63.7657 18.9171 65.4443 18.9171H73.7778C75.4564 18.9171 76.9774 19.598 78.0784 20.6989C79.1804 21.7999 79.8606 23.3209 79.8606 25.0001C79.8606 26.6792 79.1804 28.2002 78.0784 29.3012C76.9774 30.4021 75.4564 31.083 73.7778 31.083H65.4443C63.7657 31.083 62.2438 30.4021 61.1427 29.3012C61.1142 29.2729 61.0867 29.2446 61.0591 29.2162C61.0316 29.2446 61.0031 29.2729 60.9755 29.3012C59.8735 30.4021 58.3526 31.083 56.6739 31.083H34.194C32.5153 31.083 30.9944 30.4021 29.8924 29.3012C28.7913 28.2002 28.1111 26.6792 28.1111 25.0001C28.1111 23.3209 28.7913 21.7999 29.8924 20.6989C30.9944 19.598 32.5153 18.9171 34.194 18.9171H56.6739C58.3526 18.9171 59.8735 19.598 60.9755 20.6989C61.0031 20.7273 61.0316 20.7556 61.0591 20.7839ZM58.7573 25.0001C58.7573 23.8507 57.8234 22.9173 56.6739 22.9173H34.194C33.0445 22.9173 32.1106 23.8507 32.1106 25.0001C32.1106 26.1494 33.0445 27.084 34.194 27.084H56.6739C57.8234 27.084 58.7573 26.1494 58.7573 25.0001ZM75.8611 25.0001C75.8611 23.8507 74.9273 22.9173 73.7778 22.9173H65.4443C64.2939 22.9173 63.361 23.8507 63.361 25.0001C63.361 26.1494 64.2939 27.084 65.4443 27.084H73.7778C74.9273 27.084 75.8611 26.1494 75.8611 25.0001ZM61.0591 33.2849C61.0867 33.2554 61.1142 33.2271 61.1427 33.1988C62.2438 32.0978 63.7657 31.417 65.4443 31.417H73.7778C75.4564 31.417 76.9774 32.0978 78.0784 33.1988C79.1804 34.2997 79.8606 35.8207 79.8606 37.4999C79.8606 39.1791 79.1804 40.7001 78.0784 41.801C76.9774 42.9032 75.4564 43.584 73.7778 43.584H65.4443C63.7657 43.584 62.2438 42.9032 61.1427 41.801C61.1142 41.7727 61.0867 41.7444 61.0591 41.7161C61.0316 41.7444 61.0031 41.7727 60.9755 41.801C59.8735 42.9032 58.3526 43.584 56.6739 43.584H34.194C32.5153 43.584 30.9944 42.9032 29.8924 41.801C28.7913 40.7001 28.1111 39.1791 28.1111 37.4999C28.1111 35.8207 28.7913 34.2997 29.8924 33.1988C30.9944 32.0978 32.5153 31.417 34.194 31.417H56.6739C58.3526 31.417 59.8735 32.0978 60.9755 33.1988C61.0031 33.2271 61.0316 33.2554 61.0591 33.2849ZM75.8611 37.4999C75.8611 36.3506 74.9273 35.4172 73.7778 35.4172H65.4443C64.2939 35.4172 63.361 36.3506 63.361 37.4999C63.361 38.6504 64.2939 39.5838 65.4443 39.5838H73.7778C74.9273 39.5838 75.8611 38.6504 75.8611 37.4999ZM58.7573 37.4999C58.7573 36.3506 57.8234 35.4172 56.6739 35.4172H34.194C33.0445 35.4172 32.1106 36.3506 32.1106 37.4999C32.1106 38.6504 33.0445 39.5838 34.194 39.5838H56.6739C57.8234 39.5838 58.7573 38.6504 58.7573 37.4999Z" fill="#495057"/>
<path fill-rule="evenodd" clip-rule="evenodd" d="M28.3063 29.1667C28.3063 28.0167 27.3726 27.0829 26.2228 27.0829H17.8895C16.7398 27.0829 15.806 28.0167 15.806 29.1667C15.806 30.3167 16.7398 31.2505 17.8895 31.2505H26.2228C27.3726 31.2505 28.3063 30.3167 28.3063 29.1667Z" fill="#495057"/>
<path fill-rule="evenodd" clip-rule="evenodd" d="M28.3063 29.1667C28.3063 30.3167 27.3726 31.2505 26.2228 31.2505H17.8895C16.7398 31.2505 15.806 30.3167 15.806 29.1667C15.806 28.0167 16.7398 27.0829 17.8895 27.0829H26.2228C27.3726 27.0829 28.3063 28.0167 28.3063 29.1667Z" fill="#495057"/>
<path fill-rule="evenodd" clip-rule="evenodd" d="M28.3063 50C28.3063 48.85 27.3726 47.9163 26.2228 47.9163H17.8895C16.7398 47.9163 15.806 48.85 15.806 50C15.806 51.15 16.7398 52.0838 17.8895 52.0838H26.2228C27.3726 52.0838 28.3063 51.15 28.3063 50Z" fill="#495057"/>
<path fill-rule="evenodd" clip-rule="evenodd" d="M28.3063 50C28.3063 51.15 27.3726 52.0838 26.2228 52.0838H17.8895C16.7398 52.0838 15.806 51.15 15.806 50C15.806 48.85 16.7398 47.9163 17.8895 47.9163H26.2228C27.3726 47.9163 28.3063 48.85 28.3063 50Z" fill="#495057"/>
<path fill-rule="evenodd" clip-rule="evenodd" d="M28.3063 70.8334C28.3063 69.6834 27.3726 68.7497 26.2228 68.7497H17.8895C16.7398 68.7497 15.806 69.6834 15.806 70.8334C15.806 71.9834 16.7398 72.9172 17.8895 72.9172H26.2228C27.3726 72.9172 28.3063 71.9834 28.3063 70.8334Z" fill="#495057"/>
<path fill-rule="evenodd" clip-rule="evenodd" d="M28.3063 70.8334C28.3063 71.9834 27.3726 72.9172 26.2228 72.9172H17.8895C16.7398 72.9172 15.806 71.9834 15.806 70.8334C15.806 69.6834 16.7398 68.7497 17.8895 68.7497H26.2228C27.3726 68.7497 28.3063 69.6834 28.3063 70.8334Z" fill="#495057"/>
</g>
<defs>
<clipPath id="clip0_356_19002">
<rect width="100" height="100" fill="white"/>
</clipPath>
</defs>
</svg>
