<svg width="100" height="100" viewBox="0 0 100 100" fill="none" xmlns="http://www.w3.org/2000/svg">
<path fill-rule="evenodd" clip-rule="evenodd" d="M84.1956 12.4448V87.5559C84.1956 89.8557 82.3279 91.7225 80.0289 91.7225H25.0285C22.7286 91.7225 20.8618 89.8557 20.8618 87.5559V12.4448C20.8618 10.1449 22.7286 8.27698 25.0285 8.27698H80.0289C82.3279 8.27698 84.1956 10.1449 84.1956 12.4448ZM80.1952 12.4448L80.0289 12.2772H25.0285L24.8623 12.4448V87.5559L25.0285 87.7234H80.0289L80.1952 87.5559V12.4448Z" fill="#495057"/>
<path fill-rule="evenodd" clip-rule="evenodd" d="M28.3074 29.1667C28.3074 28.0167 27.3737 27.083 26.2239 27.083H17.8906C16.7409 27.083 15.8071 28.0167 15.8071 29.1667C15.8071 30.3167 16.7409 31.2505 17.8906 31.2505H26.2239C27.3737 31.2505 28.3074 30.3167 28.3074 29.1667Z" fill="#495057"/>
<path fill-rule="evenodd" clip-rule="evenodd" d="M28.3074 29.1667C28.3074 30.3167 27.3737 31.2505 26.2239 31.2505H17.8906C16.7409 31.2505 15.8071 30.3167 15.8071 29.1667C15.8071 28.0167 16.7409 27.083 17.8906 27.083H26.2239C27.3737 27.083 28.3074 28.0167 28.3074 29.1667Z" fill="#495057"/>
<path fill-rule="evenodd" clip-rule="evenodd" d="M28.3074 50C28.3074 48.85 27.3737 47.9163 26.2239 47.9163H17.8906C16.7409 47.9163 15.8071 48.85 15.8071 50C15.8071 51.15 16.7409 52.0838 17.8906 52.0838H26.2239C27.3737 52.0838 28.3074 51.15 28.3074 50Z" fill="#495057"/>
<path fill-rule="evenodd" clip-rule="evenodd" d="M28.3074 50C28.3074 51.15 27.3737 52.0838 26.2239 52.0838H17.8906C16.7409 52.0838 15.8071 51.15 15.8071 50C15.8071 48.85 16.7409 47.9163 17.8906 47.9163H26.2239C27.3737 47.9163 28.3074 48.85 28.3074 50Z" fill="#495057"/>
<path fill-rule="evenodd" clip-rule="evenodd" d="M28.3074 70.8334C28.3074 69.6834 27.3737 68.7497 26.2239 68.7497H17.8906C16.7409 68.7497 15.8071 69.6834 15.8071 70.8334C15.8071 71.9834 16.7409 72.9172 17.8906 72.9172H26.2239C27.3737 72.9172 28.3074 71.9834 28.3074 70.8334Z" fill="#495057"/>
<path fill-rule="evenodd" clip-rule="evenodd" d="M28.3074 70.8334C28.3074 71.9834 27.3737 72.9172 26.2239 72.9172H17.8906C16.7409 72.9172 15.8071 71.9834 15.8071 70.8334C15.8071 69.6834 16.7409 68.7497 17.8906 68.7497H26.2239C27.3737 68.7497 28.3074 69.6834 28.3074 70.8334Z" fill="#495057"/>
<path fill-rule="evenodd" clip-rule="evenodd" d="M75.8611 25C75.8611 23.85 74.9274 22.9163 73.7776 22.9163H65.4443C64.2946 22.9163 63.3608 23.85 63.3608 25C63.3608 26.15 64.2946 27.0838 65.4443 27.0838H73.7776C74.9274 27.0838 75.8611 26.15 75.8611 25Z" fill="#495057"/>
<path fill-rule="evenodd" clip-rule="evenodd" d="M75.8611 25C75.8611 26.15 74.9274 27.0838 73.7776 27.0838H65.4443C64.2946 27.0838 63.3608 26.15 63.3608 25C63.3608 23.85 64.2946 22.9163 65.4443 22.9163H73.7776C74.9274 22.9163 75.8611 23.85 75.8611 25Z" fill="#495057"/>
<path fill-rule="evenodd" clip-rule="evenodd" d="M58.7577 25C58.7577 23.85 57.824 22.9163 56.6745 22.9163H34.1938C33.0443 22.9163 32.1106 23.85 32.1106 25C32.1106 26.15 33.0443 27.0838 34.1938 27.0838H56.6745C57.824 27.0838 58.7577 26.15 58.7577 25Z" fill="#495057"/>
<path fill-rule="evenodd" clip-rule="evenodd" d="M58.7577 25C58.7577 26.15 57.824 27.0838 56.6745 27.0838H34.1938C33.0443 27.0838 32.1106 26.15 32.1106 25C32.1106 23.85 33.0443 22.9163 34.1938 22.9163H56.6745C57.824 22.9163 58.7577 23.85 58.7577 25Z" fill="#495057"/>
<path fill-rule="evenodd" clip-rule="evenodd" d="M75.8611 37.5C75.8611 36.35 74.9274 35.4163 73.7776 35.4163H65.4443C64.2946 35.4163 63.3608 36.35 63.3608 37.5C63.3608 38.65 64.2946 39.5838 65.4443 39.5838H73.7776C74.9274 39.5838 75.8611 38.65 75.8611 37.5Z" fill="#495057"/>
<path fill-rule="evenodd" clip-rule="evenodd" d="M75.8611 37.5C75.8611 38.65 74.9274 39.5838 73.7776 39.5838H65.4443C64.2946 39.5838 63.3608 38.65 63.3608 37.5C63.3608 36.35 64.2946 35.4163 65.4443 35.4163H73.7776C74.9274 35.4163 75.8611 36.35 75.8611 37.5Z" fill="#495057"/>
<path fill-rule="evenodd" clip-rule="evenodd" d="M58.7577 37.5C58.7577 36.35 57.824 35.4163 56.6745 35.4163H34.1938C33.0443 35.4163 32.1106 36.35 32.1106 37.5C32.1106 38.65 33.0443 39.5838 34.1938 39.5838H56.6745C57.824 39.5838 58.7577 38.65 58.7577 37.5Z" fill="#495057"/>
<path fill-rule="evenodd" clip-rule="evenodd" d="M58.7577 37.5C58.7577 38.65 57.824 39.5838 56.6745 39.5838H34.1938C33.0443 39.5838 32.1106 38.65 32.1106 37.5C32.1106 36.35 33.0443 35.4163 34.1938 35.4163H56.6745C57.824 35.4163 58.7577 36.35 58.7577 37.5Z" fill="#495057"/>
<path fill-rule="evenodd" clip-rule="evenodd" d="M75.8611 50C75.8611 48.85 74.9274 47.9163 73.7776 47.9163H65.4443C64.2946 47.9163 63.3608 48.85 63.3608 50C63.3608 51.15 64.2946 52.0838 65.4443 52.0838H73.7776C74.9274 52.0838 75.8611 51.15 75.8611 50Z" fill="#495057"/>
<path fill-rule="evenodd" clip-rule="evenodd" d="M75.8611 50C75.8611 51.15 74.9274 52.0838 73.7776 52.0838H65.4443C64.2946 52.0838 63.3608 51.15 63.3608 50C63.3608 48.85 64.2946 47.9163 65.4443 47.9163H73.7776C74.9274 47.9163 75.8611 48.85 75.8611 50Z" fill="#495057"/>
<path fill-rule="evenodd" clip-rule="evenodd" d="M58.7577 50C58.7577 48.85 57.824 47.9163 56.6745 47.9163H34.1938C33.0443 47.9163 32.1106 48.85 32.1106 50C32.1106 51.15 33.0443 52.0838 34.1938 52.0838H56.6745C57.824 52.0838 58.7577 51.15 58.7577 50Z" fill="#495057"/>
<path fill-rule="evenodd" clip-rule="evenodd" d="M58.7577 50C58.7577 51.15 57.824 52.0838 56.6745 52.0838H34.1938C33.0443 52.0838 32.1106 51.15 32.1106 50C32.1106 48.85 33.0443 47.9163 34.1938 47.9163H56.6745C57.824 47.9163 58.7577 48.85 58.7577 50Z" fill="#495057"/>
<path fill-rule="evenodd" clip-rule="evenodd" d="M75.8611 62.5001C75.8611 61.3501 74.9274 60.4164 73.7776 60.4164H65.4443C64.2946 60.4164 63.3608 61.3501 63.3608 62.5001C63.3608 63.6501 64.2946 64.5839 65.4443 64.5839H73.7776C74.9274 64.5839 75.8611 63.6501 75.8611 62.5001Z" fill="#495057"/>
<path fill-rule="evenodd" clip-rule="evenodd" d="M75.8611 62.5001C75.8611 63.6501 74.9274 64.5839 73.7776 64.5839H65.4443C64.2946 64.5839 63.3608 63.6501 63.3608 62.5001C63.3608 61.3501 64.2946 60.4164 65.4443 60.4164H73.7776C74.9274 60.4164 75.8611 61.3501 75.8611 62.5001Z" fill="#495057"/>
<path fill-rule="evenodd" clip-rule="evenodd" d="M58.7577 62.5001C58.7577 61.3501 57.824 60.4164 56.6745 60.4164H34.1938C33.0443 60.4164 32.1106 61.3501 32.1106 62.5001C32.1106 63.6501 33.0443 64.5839 34.1938 64.5839H56.6745C57.824 64.5839 58.7577 63.6501 58.7577 62.5001Z" fill="#495057"/>
<path fill-rule="evenodd" clip-rule="evenodd" d="M58.7577 62.5001C58.7577 63.6501 57.824 64.5839 56.6745 64.5839H34.1938C33.0443 64.5839 32.1106 63.6501 32.1106 62.5001C32.1106 61.3501 33.0443 60.4164 34.1938 60.4164H56.6745C57.824 60.4164 58.7577 61.3501 58.7577 62.5001Z" fill="#495057"/>
<path fill-rule="evenodd" clip-rule="evenodd" d="M75.8611 75.0001C75.8611 73.8501 74.9274 72.9163 73.7776 72.9163H65.4443C64.2946 72.9163 63.3608 73.8501 63.3608 75.0001C63.3608 76.1501 64.2946 77.0838 65.4443 77.0838H73.7776C74.9274 77.0838 75.8611 76.1501 75.8611 75.0001Z" fill="#495057"/>
<path fill-rule="evenodd" clip-rule="evenodd" d="M75.8611 75.0001C75.8611 76.1501 74.9274 77.0838 73.7776 77.0838H65.4443C64.2946 77.0838 63.3608 76.1501 63.3608 75.0001C63.3608 73.8501 64.2946 72.9163 65.4443 72.9163H73.7776C74.9274 72.9163 75.8611 73.8501 75.8611 75.0001Z" fill="#495057"/>
<path fill-rule="evenodd" clip-rule="evenodd" d="M58.7577 75.0001C58.7577 73.8501 57.824 72.9163 56.6745 72.9163H34.1938C33.0443 72.9163 32.1106 73.8501 32.1106 75.0001C32.1106 76.1501 33.0443 77.0838 34.1938 77.0838H56.6745C57.824 77.0838 58.7577 76.1501 58.7577 75.0001Z" fill="#495057"/>
<path fill-rule="evenodd" clip-rule="evenodd" d="M58.7577 75.0001C58.7577 76.1501 57.824 77.0838 56.6745 77.0838H34.1938C33.0443 77.0838 32.1106 76.1501 32.1106 75.0001C32.1106 73.8501 33.0443 72.9163 34.1938 72.9163H56.6745C57.824 72.9163 58.7577 73.8501 58.7577 75.0001Z" fill="#495057"/>
</svg>
