<svg width="24" height="24" viewBox="0 0 24 24" fill="none" xmlns="http://www.w3.org/2000/svg">
<path d="M12 22C10.6167 22 9.31667 21.7374 8.1 21.212C6.88333 20.6874 5.825 19.9751 4.925 19.0751C4.025 18.1751 3.31267 17.1167 2.788 15.9C2.26267 14.6834 2 13.3834 2 12C2 9.41672 2.85833 7.17505 4.575 5.27505C6.29167 3.37505 8.43333 2.30005 11 2.05005V5.05005C9.26667 5.28338 7.83333 6.05838 6.7 7.37505C5.56667 8.69172 5 10.2334 5 12C5 13.95 5.67933 15.604 7.038 16.962C8.396 18.3207 10.05 19 12 19C13.0667 19 14.0793 18.7751 15.038 18.3251C15.996 17.8751 16.8167 17.2334 17.5 16.4L20.1 17.9C19.15 19.2 17.9667 20.2084 16.55 20.925C15.1333 21.6417 13.6167 22 12 22ZM21.15 16.05L18.55 14.55C18.7 14.1334 18.8127 13.7124 18.888 13.287C18.9627 12.8624 19 12.4334 19 12C19 10.2334 18.4333 8.69172 17.3 7.37505C16.1667 6.05838 14.7333 5.28338 13 5.05005V2.05005C15.5667 2.30005 17.7083 3.37505 19.425 5.27505C21.1417 7.17505 22 9.41672 22 12C22 12.7 21.9373 13.3917 21.812 14.075C21.6873 14.7584 21.4667 15.4167 21.15 16.05V16.05Z" fill="#627D98"/>
</svg>
